<?xml version="1.0" encoding="UTF-8" standalone="no"?>
<!-- Created with Inkscape (http://www.inkscape.org/) -->

<svg
   version="1.1"
   id="svg2"
   xml:space="preserve"
   width="4946.6665"
   height="4946.6665"
   viewBox="0 0 4946.6665 4946.6665"
   sodipodi:docname="register.svg"
   inkscape:version="1.1.2 (0a00cf5339, 2022-02-04)"
   xmlns:inkscape="http://www.inkscape.org/namespaces/inkscape"
   xmlns:sodipodi="http://sodipodi.sourceforge.net/DTD/sodipodi-0.dtd"
   xmlns:xlink="http://www.w3.org/1999/xlink"
   xmlns="http://www.w3.org/2000/svg"
   xmlns:svg="http://www.w3.org/2000/svg"><defs
     id="defs6"><linearGradient
       x1="0"
       y1="0"
       x2="1"
       y2="0"
       gradientUnits="userSpaceOnUse"
       gradientTransform="matrix(4311.21,-5591.09,5591.09,4311.21,-105070,162002)"
       spreadMethod="pad"
       id="linearGradient2553"><stop
         style="stop-opacity:1;stop-color:#ff928e"
         offset="0"
         id="stop2549" /><stop
         style="stop-opacity:1;stop-color:#ffd5d5"
         offset="1"
         id="stop2551" /></linearGradient><clipPath
       clipPathUnits="userSpaceOnUse"
       id="clipPath20"><path
         d="m 11262.2,6228.7 c -1104.5,373.8 -2123.94,901.6 -3069.41,1755.8 -4496.53,4062.4 -4277.84,12537 -841.92,17786.6 244.53,373.6 1577.97,2354.9 3790.63,4034.4 -29.6,-5464.3 -75.1,-18405.4 120.7,-23576.8 m 19395.9,4812.6 c 331.9,2617.8 758,4029.3 1000.4,4671.1 41.8,110.5 -45.8,212.5 -146.7,212.5 -28.1,0 -57.3,-7.9 -84.9,-25.8 -133.2,-86.1 -292.8,-194.3 -471.8,-325.2 145.6,2201.1 40.8,4085.6 332.8,4986.8 26.7,82.6 -39.7,154 -113.4,154 -23.6,0 -48,-7.3 -70.2,-23.9 -526.7,-392.8 -1487.4,-1246.1 -2218,-2670.4 -50.4,3520.4 -139.6,7152.7 -294.6,10023.1 419.2,-459.5 869.8,-1020.9 1304.2,-1691.8 2833.3,-4375.8 3275.5,-10784.9 762.2,-15310.4"
         id="path18" /></clipPath><linearGradient
       x1="0"
       y1="0"
       x2="1"
       y2="0"
       gradientUnits="userSpaceOnUse"
       gradientTransform="matrix(-19400.5,20652.2,20652.2,19400.5,34822,504.199)"
       spreadMethod="pad"
       id="linearGradient26"><stop
         style="stop-opacity:1;stop-color:#dae3fe"
         offset="0"
         id="stop22" /><stop
         style="stop-opacity:1;stop-color:#e9effd"
         offset="1"
         id="stop24" /></linearGradient><clipPath
       clipPathUnits="userSpaceOnUse"
       id="clipPath44"><path
         d="m 19340.5,4848.8 c -3054.7,0 -5928.1,40.1 -7152.9,68.6 -490.6,11.4 -890.6,465.9 -914.6,1039.3 -3.7,88.2 -7.3,178.7 -10.8,272 -195.8,5171.4 -150.3,18112.5 -120.7,23576.8 2.7,490.3 5.2,919.9 7.4,1278.8 4.5,724.6 479.9,1324.1 1097.2,1380.3 659,60 1522.1,85.4 2505.7,85.4 4125.8,0 10366.7,-447.2 12503.1,-664.8 613.8,-62.5 1103.9,-626.8 1166.5,-1343.8 64.2,-735.3 120.6,-1577.2 170.3,-2497.9 155,-2870.4 244.2,-6502.7 294.6,-10023.1 21.3,-1492 35.7,-2963.8 45.1,-4349.4 11.2,-1631 15.5,-3142.2 16.3,-4425.4 0.1,-126.6 0.2,-251.5 0.2,-373.6 0.1,-788.2 -1,-1479.3 -2.6,-2045.6 -0.1,-39.1 -1.2,-78 -3.4,-116.5 -51.7,-913.9 -677.9,-1645.8 -1470.1,-1696.6 -1963,-125.9 -5134.4,-164.5 -8131.3,-164.5 m -4179,26113 c -781.1,0 -1453.6,-17 -1955.4,-56.6 -528.3,-41.7 -941.4,-544.4 -954.7,-1163.7 -76.9,-3577.3 -310.1,-15478 -113.4,-19874.4 28.7,-642.6 469.6,-1155.9 1019.1,-1185.2 1349.4,-72.1 4639.4,-181.4 7777,-181.4 2123,0 4175.9,50 5511.9,195.4 596.1,64.9 1056,636.7 1077.7,1336.7 113.3,3650.2 429.4,14732.8 238.8,19080 -30.4,693.5 -498.3,1253.2 -1090.2,1306.4 -2012.4,180.9 -7910.4,542.8 -11510.8,542.8"
         id="path42" /></clipPath><linearGradient
       x1="0"
       y1="0"
       x2="1"
       y2="0"
       gradientUnits="userSpaceOnUse"
       gradientTransform="matrix(-17476.4,34054.4,34054.4,17476.4,28400.3,1595)"
       spreadMethod="pad"
       id="linearGradient50"><stop
         style="stop-opacity:1;stop-color:#09005d"
         offset="0"
         id="stop46" /><stop
         style="stop-opacity:1;stop-color:#1a0f91"
         offset="1"
         id="stop48" /></linearGradient><clipPath
       clipPathUnits="userSpaceOnUse"
       id="clipPath60"><path
         d="m 20934.1,8500.5 c -3137.6,0 -6427.6,109.3 -7777,181.4 -549.5,29.3 -990.4,542.6 -1019.1,1185.2 -196.7,4396.4 36.5,16297.1 113.4,19874.4 13.3,619.3 426.4,1122 954.7,1163.7 501.8,39.6 1174.3,56.6 1955.4,56.6 3600.4,0 9498.4,-361.9 11510.8,-542.8 591.9,-53.2 1059.8,-612.9 1090.2,-1306.4 190.6,-4347.2 -125.5,-15429.8 -238.8,-19080 -21.7,-700 -481.6,-1271.8 -1077.7,-1336.7 -1336,-145.4 -3388.9,-195.4 -5511.9,-195.4 m 3157.1,6838.6 c -328.8,0 -593.1,-251.3 -593.1,-564.5 0,-316.4 269.7,-580.8 603.1,-589.6 5.7,-0.1 11.4,-0.2 17,-0.2 327.7,0 593,249.9 593,564.4 0,320 -274.5,584.6 -610,589.8 -3.3,0 -6.7,0.1 -10,0.1 m -2573.2,40 c -313.4,0 -565.4,-245.5 -565.4,-551.3 0,-308.8 257.1,-566.8 574.7,-575.2 5.3,-0.1 10.6,-0.2 15.9,-0.2 312.3,0 565.2,244.2 565.2,551.3 0,312.2 -261.4,570.3 -581.1,575.3 -3.1,0 -6.2,0.1 -9.3,0.1 M 19649.1,19448 20817,15716.1 c 19.7,-62.8 78.7,-106 145.5,-106.9 l 3861.1,-51.9 c 1,0 1.9,0 2.9,0 89.3,0 161.3,56.6 161.3,141.4 0,85.6 -73.5,144.3 -164.2,145.3 l -3748.4,40.4 -300.9,969 4119.3,-6.3 c 0.1,0 0.2,0 0.3,0 84.2,0 158.4,55.2 182,131.6 l 650.1,2102.1 c 17,54.8 5.5,111.3 -30.8,156 -35.2,43.2 -89.7,61.9 -148,61.9 -1.9,0 -3.8,0 -5.7,0 l -5501,-115.4 -139,441.4 c -18.9,60.2 -74.7,99.2 -138.4,99.2 -1.4,0 -2.7,0 -4.1,-0.1 l -755.3,-19.8 c -81,-2.1 -146.6,-58.4 -146.6,-139.3 0,-79.4 63.3,-132 142.4,-132 1.4,0 2.8,0 4.2,0.1 l 645.4,15.2 m 4459.2,-4955.3 c -2.4,0 -4.7,0 -7.1,0 -155.8,3.7 -282.3,127.1 -282.3,275.2 0,146.3 123.5,263.4 276.8,263.4 1.8,0 3.7,0 5.5,-0.1 156.3,-2.8 283.8,-126.3 283.8,-275.1 0,-146.7 -123.7,-263.4 -276.7,-263.4 m -2574.4,60.2 c -2.2,0 -4.3,0.1 -6.6,0.1 -148.4,3.5 -268.9,123.9 -268.9,268.4 0,142.9 117.7,257.3 263.8,257.3 1.7,0 3.4,0 5.1,-0.1 148.9,-2.7 270.4,-123.1 270.4,-268.4 0,-143.2 -117.9,-257.3 -263.8,-257.3"
         id="path58" /></clipPath><linearGradient
       x1="0"
       y1="0"
       x2="1"
       y2="0"
       gradientUnits="userSpaceOnUse"
       gradientTransform="matrix(15761.3,0,0,-15761.3,12061,19731.1)"
       spreadMethod="pad"
       id="linearGradient66"><stop
         style="stop-opacity:1;stop-color:#4f52ff"
         offset="0"
         id="stop62" /><stop
         style="stop-opacity:1;stop-color:#4042e2"
         offset="1"
         id="stop64" /></linearGradient><clipPath
       clipPathUnits="userSpaceOnUse"
       id="clipPath76"><path
         d="m 19039.9,31682.7 v 0 c 2.1,-136 94.3,-246.7 210.4,-252.1 573.4,-26.5 2188.4,-101.5 2910.3,-139.7 142.3,-7.5 251.7,143.7 222.3,306.9 l -5.1,27.9 c -20,111.3 -100.4,194.2 -197.4,203.1 -454.8,41.9 -1927.7,169.6 -2935.1,112.4 -117.1,-6.6 -207.4,-121.5 -205.4,-258.5 z"
         id="path74" /></clipPath><linearGradient
       x1="0"
       y1="0"
       x2="1"
       y2="0"
       gradientUnits="userSpaceOnUse"
       gradientTransform="matrix(-910.994,-18725.8,-18725.8,910.994,21356.9,44835.7)"
       spreadMethod="pad"
       id="linearGradient82"><stop
         style="stop-opacity:1;stop-color:#4f52ff"
         offset="0"
         id="stop78" /><stop
         style="stop-opacity:1;stop-color:#4042e2"
         offset="1"
         id="stop80" /></linearGradient><clipPath
       clipPathUnits="userSpaceOnUse"
       id="clipPath92"><path
         d="m 24826.5,15557.3 c -1,0 -1.9,0 -2.9,0 l -3861.1,51.9 c -66.8,0.9 -125.8,44.1 -145.5,106.9 l -1167.9,3731.9 -645.4,-15.2 c -1.4,-0.1 -2.8,-0.1 -4.2,-0.1 -79.1,0 -142.4,52.6 -142.4,132 0,80.9 65.6,137.2 146.6,139.3 l 755.3,19.8 c 1.4,0.1 2.7,0.1 4.1,0.1 63.7,0 119.5,-39 138.4,-99.2 l 139,-441.4 5501,115.4 c 1.9,0 3.8,0 5.7,0 58.3,0 112.8,-18.7 148,-61.9 36.3,-44.7 47.8,-101.2 30.8,-156 l -650.1,-2102.1 c -23.6,-76.4 -97.8,-131.6 -182,-131.6 -0.1,0 -0.2,0 -0.3,0 l -4119.3,6.3 300.9,-969 3748.4,-40.4 c 90.7,-1 164.2,-59.7 164.2,-145.3 0,-84.8 -72,-141.4 -161.3,-141.4"
         id="path90" /></clipPath><linearGradient
       x1="0"
       y1="0"
       x2="1"
       y2="0"
       gradientUnits="userSpaceOnUse"
       gradientTransform="matrix(15761.3,0,0,-15761.3,12061,19731.1)"
       spreadMethod="pad"
       id="linearGradient98"><stop
         style="stop-opacity:1;stop-color:#84a0fb"
         offset="0"
         id="stop94" /><stop
         style="stop-opacity:1;stop-color:#819cf5"
         offset="1"
         id="stop96" /></linearGradient><clipPath
       clipPathUnits="userSpaceOnUse"
       id="clipPath108"><path
         d="m 21543.2,14252.4 c -5.3,0 -10.6,0.1 -15.9,0.2 -317.6,8.4 -574.7,266.4 -574.7,575.2 0,305.8 252,551.3 565.4,551.3 3.1,0 6.2,-0.1 9.3,-0.1 319.7,-5 581.1,-263.1 581.1,-575.3 0,-307.1 -252.9,-551.3 -565.2,-551.3 m -21,826.3 c -146.1,0 -263.8,-114.4 -263.8,-257.3 0,-144.5 120.5,-264.9 268.9,-268.4 2.3,0 4.4,-0.1 6.6,-0.1 145.9,0 263.8,114.1 263.8,257.3 0,145.3 -121.5,265.7 -270.4,268.4 -1.7,0.1 -3.4,0.1 -5.1,0.1"
         id="path106" /></clipPath><linearGradient
       x1="0"
       y1="0"
       x2="1"
       y2="0"
       gradientUnits="userSpaceOnUse"
       gradientTransform="matrix(15761.3,0,0,-15761.3,12061,19731.1)"
       spreadMethod="pad"
       id="linearGradient114"><stop
         style="stop-opacity:1;stop-color:#84a0fb"
         offset="0"
         id="stop110" /><stop
         style="stop-opacity:1;stop-color:#819cf5"
         offset="1"
         id="stop112" /></linearGradient><clipPath
       clipPathUnits="userSpaceOnUse"
       id="clipPath124"><path
         d="m 24118.2,14184.8 c -5.6,0 -11.3,0.1 -17,0.2 -333.4,8.8 -603.1,273.2 -603.1,589.6 0,313.2 264.3,564.5 593.1,564.5 3.3,0 6.7,-0.1 10,-0.1 335.5,-5.2 610,-269.8 610,-589.8 0,-314.5 -265.3,-564.4 -593,-564.4 m -22.5,846.5 c -153.3,0 -276.8,-117.1 -276.8,-263.4 0,-148.1 126.5,-271.5 282.3,-275.2 2.4,0 4.7,0 7.1,0 153,0 276.7,116.7 276.7,263.4 0,148.8 -127.5,272.3 -283.8,275.1 -1.8,0.1 -3.7,0.1 -5.5,0.1"
         id="path122" /></clipPath><linearGradient
       x1="0"
       y1="0"
       x2="1"
       y2="0"
       gradientUnits="userSpaceOnUse"
       gradientTransform="matrix(15761.3,0,0,-15761.3,12061,19731.1)"
       spreadMethod="pad"
       id="linearGradient130"><stop
         style="stop-opacity:1;stop-color:#84a0fb"
         offset="0"
         id="stop126" /><stop
         style="stop-opacity:1;stop-color:#819cf5"
         offset="1"
         id="stop128" /></linearGradient><clipPath
       clipPathUnits="userSpaceOnUse"
       id="clipPath140"><path
         d="m 12715.9,31034.8 c -73.3,0.7 -141.8,-27.4 -181.7,-92.6 -838.7,-1370.8 -1678,-2790.8 -2516.1,-4101.6 810.6,-8.2 1621.1,-16.4 2431.7,-24.6 647.6,1312.7 1296.9,2776.1 1945.7,4201.8 -559.9,5.7 -1119.8,11.3 -1679.6,17 z"
         id="path138" /></clipPath><linearGradient
       x1="0"
       y1="0"
       x2="1"
       y2="0"
       gradientUnits="userSpaceOnUse"
       gradientTransform="matrix(-194.978,-19242.1,-14912.7,150.229,12172.1,25504.2)"
       spreadMethod="pad"
       id="linearGradient146"><stop
         style="stop-opacity:1;stop-color:#ff928e"
         offset="0"
         id="stop142" /><stop
         style="stop-opacity:1;stop-color:#fe7062"
         offset="1"
         id="stop144" /></linearGradient><clipPath
       clipPathUnits="userSpaceOnUse"
       id="clipPath158"><path
         d="m 17312.7,26735 c -810.6,8.2 -1621.1,16.4 -2431.7,24.6 437.3,1410.1 874.5,2820.2 1311.7,4230.3 599.1,-6.1 1198.1,-12.2 1797.3,-18.2 -225.8,-1412.3 -451.6,-2824.5 -677.3,-4236.7 z"
         id="path156" /></clipPath><linearGradient
       x1="0"
       y1="0"
       x2="1"
       y2="0"
       gradientUnits="userSpaceOnUse"
       gradientTransform="matrix(-195.999,-19342.9,-14990.7,151.016,16400.6,25422.7)"
       spreadMethod="pad"
       id="linearGradient164"><stop
         style="stop-opacity:1;stop-color:#ff928e"
         offset="0"
         id="stop160" /><stop
         style="stop-opacity:1;stop-color:#fe7062"
         offset="1"
         id="stop162" /></linearGradient><clipPath
       clipPathUnits="userSpaceOnUse"
       id="clipPath176"><path
         d="m 22175.9,26685.8 c -810.5,8.2 -1621.1,16.4 -2431.6,24.6 14.3,1414.4 28.6,2828.7 42.9,4243.1 599.1,-6.1 1198.2,-12.1 1797.3,-18.2 197.1,-1416.5 394.3,-2833 591.4,-4249.5 z"
         id="path174" /></clipPath><linearGradient
       x1="0"
       y1="0"
       x2="1"
       y2="0"
       gradientUnits="userSpaceOnUse"
       gradientTransform="matrix(-196.002,-19343.1,-14990.9,151.018,20946.7,25376.7)"
       spreadMethod="pad"
       id="linearGradient182"><stop
         style="stop-opacity:1;stop-color:#ff928e"
         offset="0"
         id="stop178" /><stop
         style="stop-opacity:1;stop-color:#fe7062"
         offset="1"
         id="stop180" /></linearGradient><clipPath
       clipPathUnits="userSpaceOnUse"
       id="clipPath194"><path
         d="m 27039.1,26636.6 c -810.5,8.2 -1621,16.4 -2431.6,24.6 -408.6,1418.7 -817.2,2837.3 -1225.7,4255.9 599.1,-6.1 1198.1,-12.1 1797.3,-18.2 620,-1420.7 1240,-2841.5 1860,-4262.3 z"
         id="path192" /></clipPath><linearGradient
       x1="0"
       y1="0"
       x2="1"
       y2="0"
       gradientUnits="userSpaceOnUse"
       gradientTransform="matrix(-196.004,-19343.4,-14991.1,151.02,25175.6,25333.8)"
       spreadMethod="pad"
       id="linearGradient200"><stop
         style="stop-opacity:1;stop-color:#ff928e"
         offset="0"
         id="stop196" /><stop
         style="stop-opacity:1;stop-color:#fe7062"
         offset="1"
         id="stop198" /></linearGradient><clipPath
       clipPathUnits="userSpaceOnUse"
       id="clipPath212"><path
         d="m 10041,26840.4 c -32,0.3 -58.21,-32.8 -58.63,-74 l -6.68,-660.4 c -6.19,-612.2 576.01,-1079.9 1245.71,-1086.7 l 26.1,-0.3 c 669.7,-6.8 1211.5,449.6 1217.7,1061.8 l 7.4,735 z"
         id="path210" /></clipPath><linearGradient
       x1="5.3240466"
       y1="1.3267709"
       x2="4.3856807"
       y2="1.8356193"
       gradientUnits="userSpaceOnUse"
       gradientTransform="matrix(544.729,4131.04,3198.9,-681.09,9048.33,9899.7)"
       spreadMethod="pad"
       id="linearGradient218"
       xlink:href="#linearGradient396"><stop
         style="stop-opacity:1;stop-color:#ff928e"
         offset="0"
         id="stop214" /><stop
         style="stop-opacity:1;stop-color:#fe7062"
         offset="1"
         id="stop216" /></linearGradient><clipPath
       clipPathUnits="userSpaceOnUse"
       id="clipPath230"><path
         d="m 14855.4,26791.7 -7.5,-735 c -6.1,-612.2 562.6,-1079.8 1232.2,-1086.6 l 26.1,-0.2 c 669.7,-6.8 1189.5,449.8 1195.7,1062 l 7.4,735 z"
         id="path228" /></clipPath><linearGradient
       x1="0"
       y1="0"
       x2="1"
       y2="0"
       gradientUnits="userSpaceOnUse"
       gradientTransform="matrix(544.727,4131.02,3198.89,-681.088,13772.6,8893.6)"
       spreadMethod="pad"
       id="linearGradient236"><stop
         style="stop-opacity:1;stop-color:#ff928e"
         offset="0"
         id="stop232" /><stop
         style="stop-opacity:1;stop-color:#fe7062"
         offset="1"
         id="stop234" /></linearGradient><clipPath
       clipPathUnits="userSpaceOnUse"
       id="clipPath248"><path
         d="m 19727.6,26742.4 -7.4,-735 c -6.2,-612.2 549,-1079.7 1218.7,-1086.4 l 26,-0.3 c 669.7,-6.8 1167.5,450.1 1173.7,1062.2 l 7.4,735 z"
         id="path246" /></clipPath><linearGradient
       x1="0"
       y1="0"
       x2="1"
       y2="0"
       gradientUnits="userSpaceOnUse"
       gradientTransform="matrix(544.729,4131.03,3198.9,-681.089,18500.9,7886.7)"
       spreadMethod="pad"
       id="linearGradient254"><stop
         style="stop-opacity:1;stop-color:#ff928e"
         offset="0"
         id="stop250" /><stop
         style="stop-opacity:1;stop-color:#fe7062"
         offset="1"
         id="stop252" /></linearGradient><clipPath
       clipPathUnits="userSpaceOnUse"
       id="clipPath266"><path
         d="m 24599.9,26693.1 -7.4,-735 c -6.2,-612.2 535.4,-1079.5 1205.1,-1086.3 l 26.1,-0.3 c 669.7,-6.7 1216.5,449.6 1222.7,1061.8 l 7.4,735 z"
         id="path264" /></clipPath><linearGradient
       x1="5.373785"
       y1="-0.4113782"
       x2="4.5853562"
       y2="0.022093859"
       gradientUnits="userSpaceOnUse"
       gradientTransform="matrix(544.728,4131.03,3198.9,-681.088,23263.4,6872.5)"
       spreadMethod="pad"
       id="linearGradient272"><stop
         style="stop-opacity:1;stop-color:#ff928e"
         offset="0"
         id="stop268" /><stop
         style="stop-opacity:1;stop-color:#fe7062"
         offset="1"
         id="stop270" /></linearGradient><clipPath
       clipPathUnits="userSpaceOnUse"
       id="clipPath310"><path
         d="m 9231.89,5632.6 c 0,0 -64.95,-348.3 -98.46,-693.4 -13.1,-134.9 89.84,-253.1 225.16,-260 459.73,-23.5 1443.21,-70.2 1796.31,-57.8 53.1,1.9 88.3,55.9 69.2,105.4 -16.1,41.5 -47.5,75.3 -87.8,94.3 l -1617.9,762.3 z"
         id="path308" /></clipPath><linearGradient
       x1="0"
       y1="0"
       x2="1"
       y2="0"
       gradientUnits="userSpaceOnUse"
       gradientTransform="matrix(-6012.06,-6416.03,-6416.03,6012.06,11117.5,6096.8)"
       spreadMethod="pad"
       id="linearGradient316"><stop
         style="stop-opacity:1;stop-color:#09005d"
         offset="0"
         id="stop312" /><stop
         style="stop-opacity:1;stop-color:#1a0f91"
         offset="1"
         id="stop314" /></linearGradient><clipPath
       clipPathUnits="userSpaceOnUse"
       id="clipPath326"><path
         d="m 9183.36,5838 45.54,-417.8 c 0,0 283.39,-135.2 479.22,12.2 l -113.45,466.2 z"
         id="path324" /></clipPath><linearGradient
       x1="0"
       y1="0"
       x2="1"
       y2="0"
       gradientUnits="userSpaceOnUse"
       gradientTransform="matrix(528.56,-5.02132,-5.02132,-528.56,9181.43,5634.5)"
       spreadMethod="pad"
       id="linearGradient332"><stop
         style="stop-opacity:1;stop-color:#febbba"
         offset="0"
         id="stop328" /><stop
         style="stop-opacity:1;stop-color:#ff928e"
         offset="1"
         id="stop330" /></linearGradient><clipPath
       clipPathUnits="userSpaceOnUse"
       id="clipPath342"><path
         d="m 9295.42,13683.3 c -22.42,-108.7 -166.67,-5437.2 380.2,-7830.9 8.93,-39.1 -11.21,-79 -48.44,-93.8 -87.72,-34.9 -259.5,-85 -464.85,-89.9 -63.58,-1.5 -120.2,40.3 -137.54,101.5 -157.55,555.7 -911.36,3339.4 -987.85,5992.4 -85.47,2964.6 0.97,101 0.97,101 l 84.18,1831.1 z"
         id="path340" /></clipPath><linearGradient
       x1="0"
       y1="0"
       x2="1"
       y2="0"
       gradientUnits="userSpaceOnUse"
       gradientTransform="matrix(-5128.91,-6815.1,-6815.1,5128.91,11655.9,13412.6)"
       spreadMethod="pad"
       id="linearGradient348"><stop
         style="stop-opacity:1;stop-color:#4f52ff"
         offset="0"
         id="stop344" /><stop
         style="stop-opacity:1;stop-color:#4042e2"
         offset="1"
         id="stop346" /></linearGradient><clipPath
       clipPathUnits="userSpaceOnUse"
       id="clipPath358"><path
         d="m 7360.83,5468.4 c 0,0 -99.78,-175.2 -199.21,-642.3 -17.96,-84.4 40.33,-165.9 126.08,-175.1 151.72,-16.4 385.32,-37.8 572.62,-38.3 86.32,-0.3 154.42,74.3 144.84,160.1 -19.12,171 -81.07,451.9 -278.63,672.3 z"
         id="path356" /></clipPath><linearGradient
       x1="0"
       y1="0"
       x2="1"
       y2="0"
       gradientUnits="userSpaceOnUse"
       gradientTransform="matrix(-6012.32,-6416.3,-6416.3,6012.32,9794.21,7336.9)"
       spreadMethod="pad"
       id="linearGradient364"><stop
         style="stop-opacity:1;stop-color:#09005d"
         offset="0"
         id="stop360" /><stop
         style="stop-opacity:1;stop-color:#1a0f91"
         offset="1"
         id="stop362" /></linearGradient><clipPath
       clipPathUnits="userSpaceOnUse"
       id="clipPath374"><path
         d="m 7279.79,6006 109.68,-632.2 c 0,0 113.58,-86.2 340.46,-26.7 l -48.75,679.5 z"
         id="path372" /></clipPath><linearGradient
       x1="0"
       y1="0"
       x2="1"
       y2="0"
       gradientUnits="userSpaceOnUse"
       gradientTransform="matrix(456.354,-4.33536,-4.33536,-456.354,7276.7,5679.7)"
       spreadMethod="pad"
       id="linearGradient380"><stop
         style="stop-opacity:1;stop-color:#febbba"
         offset="0"
         id="stop376" /><stop
         style="stop-opacity:1;stop-color:#ff928e"
         offset="1"
         id="stop378" /></linearGradient><clipPath
       clipPathUnits="userSpaceOnUse"
       id="clipPath390"><path
         d="m 7039.11,13541.3 c -492.74,-2807.4 34.76,-6950.6 218.25,-7762.3 11.23,-49.7 50.89,-88.1 101.07,-96.9 85.22,-14.9 225.63,-27.8 364.56,11.1 47.85,13.4 81.8,56.2 84.22,105.8 31.91,654.5 24.08,4674.5 473.36,6258.9 22.76,80.3 72.59,150.1 141.08,197.8 l 848.31,590.9 73.84,967.7 z"
         id="path388" /></clipPath><linearGradient
       x1="0"
       y1="0"
       x2="1"
       y2="0"
       gradientUnits="userSpaceOnUse"
       gradientTransform="matrix(-5128.86,-6815.03,-6815.03,5128.86,10759.7,14087)"
       spreadMethod="pad"
       id="linearGradient396"><stop
         style="stop-opacity:1;stop-color:#4f52ff"
         offset="0"
         id="stop392" /><stop
         style="stop-opacity:1;stop-color:#4042e2"
         offset="1"
         id="stop394" /></linearGradient><clipPath
       clipPathUnits="userSpaceOnUse"
       id="clipPath406"><path
         d="m 10058.7,18840.8 c -1395.99,36.4 -2940.31,-338.6 -2940.31,-338.6 -439.36,-2424.5 -122.66,-5228.8 -122.66,-5228.8 1078.23,-293.8 2301.95,151.3 2301.95,151.3 189.34,1013.4 1054.82,3862 1054.82,3862 683,78.2 1246.9,269.6 1712.2,525.4 -349.1,412.6 -510.6,934.9 -579.9,1243.4 -495.2,-148.7 -995.5,-225.9 -1426.1,-214.7 z"
         id="path404" /></clipPath><linearGradient
       x1="0"
       y1="0"
       x2="1"
       y2="0"
       gradientUnits="userSpaceOnUse"
       gradientTransform="matrix(4311.21,-5591.09,5591.09,4311.21,-103906,162900)"
       spreadMethod="pad"
       id="linearGradient412"><stop
         style="stop-opacity:1;stop-color:#ff928e"
         offset="0"
         id="stop408" /><stop
         style="stop-opacity:1;stop-color:#fe7062"
         offset="1"
         id="stop410" /></linearGradient><clipPath
       clipPathUnits="userSpaceOnUse"
       id="clipPath422"><path
         d="m 14202.6,20858 c -135.6,167 -309.9,90.3 -309.9,90.3 -213.7,-866 -1297.8,-1559.4 -2407.9,-1892.8 69.3,-308.5 230.8,-830.8 579.9,-1243.4 1846.7,1015.3 2137.9,3045.9 2137.9,3045.9 z"
         id="path420" /></clipPath><linearGradient
       x1="0"
       y1="0"
       x2="1"
       y2="0"
       gradientUnits="userSpaceOnUse"
       gradientTransform="matrix(2700.49,-25.6546,-25.6546,-2700.49,11488.1,19403.6)"
       spreadMethod="pad"
       id="linearGradient428"><stop
         style="stop-opacity:1;stop-color:#febbba"
         offset="0"
         id="stop424" /><stop
         style="stop-opacity:1;stop-color:#ff928e"
         offset="1"
         id="stop426" /></linearGradient><clipPath
       clipPathUnits="userSpaceOnUse"
       id="clipPath438"><path
         d="m 14168.9,20816.2 c 13.9,-45.7 -152.9,-113.6 -249,73.9 -2.5,89.5 -53.3,473.1 0.9,545.5 288.3,385.3 844.7,866.5 844.7,866.5 92.4,-92.9 14.7,-182.6 14.7,-182.6 l -270.3,-276.3 c 55,-101.7 122.5,-187.8 153.3,-310.5 23.4,-92.9 7.6,-191.8 -40,-275.7 -47.8,-84.2 -113,-193.7 -174.4,-279.2 -116.3,-161.9 -279.9,-161.6 -279.9,-161.6 z"
         id="path436" /></clipPath><linearGradient
       x1="0"
       y1="0"
       x2="1"
       y2="0"
       gradientUnits="userSpaceOnUse"
       gradientTransform="matrix(3772.31,3502.86,3502.86,-3772.31,11610.6,18854.2)"
       spreadMethod="pad"
       id="linearGradient444"><stop
         style="stop-opacity:1;stop-color:#febbba"
         offset="0"
         id="stop440" /><stop
         style="stop-opacity:1;stop-color:#ff928e"
         offset="1"
         id="stop442" /></linearGradient><clipPath
       clipPathUnits="userSpaceOnUse"
       id="clipPath454"><path
         d="m 14391,21663.4 -245.9,-204.5 -78.5,-205.2 215.2,-243.3 c 0,0 77,407.8 132.2,495.7 55.2,87.9 27.4,130.9 -23,157.3 z"
         id="path452" /></clipPath><linearGradient
       x1="0"
       y1="0"
       x2="1"
       y2="0"
       gradientUnits="userSpaceOnUse"
       gradientTransform="matrix(1459.53,808.353,808.353,-1459.53,14987.9,21697.7)"
       spreadMethod="pad"
       id="linearGradient460"><stop
         style="stop-opacity:1;stop-color:#febbba"
         offset="0"
         id="stop456" /><stop
         style="stop-opacity:1;stop-color:#ff928e"
         offset="1"
         id="stop458" /></linearGradient><clipPath
       clipPathUnits="userSpaceOnUse"
       id="clipPath470"><path
         d="m 7641.04,17145.1 -522.65,1357.1 c 0,0 -1312.63,-873.7 -1537.83,-1995.1 246.26,-20.5 694.05,-88.9 1130.85,-314.7 101.51,529.6 929.63,952.7 929.63,952.7 z"
         id="path468" /></clipPath><linearGradient
       x1="0"
       y1="0"
       x2="1"
       y2="0"
       gradientUnits="userSpaceOnUse"
       gradientTransform="matrix(4311.21,-5591.09,5591.09,4311.21,-105070,162002)"
       spreadMethod="pad"
       id="linearGradient476"><stop
         style="stop-opacity:1;stop-color:#ff928e"
         offset="0"
         id="stop472" /><stop
         style="stop-opacity:1;stop-color:#fe7062"
         offset="1"
         id="stop474" /></linearGradient><clipPath
       clipPathUnits="userSpaceOnUse"
       id="clipPath486"><path
         d="m 8768.6,15862.1 c 0,0 -1472.15,-813.6 -1959.48,-102.3 -101.17,147.7 -124.31,293.8 -97.71,432.6 -436.8,225.8 -884.59,294.2 -1130.85,314.7 -67.89,-338.1 -37.14,-698.7 158.41,-1064.7 850.33,-1591.4 3219.97,56.8 3219.97,56.8 z"
         id="path484" /></clipPath><linearGradient
       x1="0"
       y1="0"
       x2="1"
       y2="0"
       gradientUnits="userSpaceOnUse"
       gradientTransform="matrix(3417.38,-32.4651,-32.4651,-3417.38,5542.54,15635)"
       spreadMethod="pad"
       id="linearGradient492"><stop
         style="stop-opacity:1;stop-color:#febbba"
         offset="0"
         id="stop488" /><stop
         style="stop-opacity:1;stop-color:#ff928e"
         offset="1"
         id="stop490" /></linearGradient><clipPath
       clipPathUnits="userSpaceOnUse"
       id="clipPath502"><path
         d="m 8655.27,19987.8 -456.53,-1280.5 c -7.56,-21.2 0.96,-44.9 20.57,-56 120.47,-68.1 554.92,-265.8 1083.89,62.6 55.11,34.2 92.94,90.5 101.87,154.7 l 154.47,1110.6 z"
         id="path500" /></clipPath><linearGradient
       x1="0"
       y1="0"
       x2="1"
       y2="0"
       gradientUnits="userSpaceOnUse"
       gradientTransform="matrix(1351.18,-12.8362,-12.8362,-1351.18,8201.44,19263.4)"
       spreadMethod="pad"
       id="linearGradient508"><stop
         style="stop-opacity:1;stop-color:#febbba"
         offset="0"
         id="stop504" /><stop
         style="stop-opacity:1;stop-color:#ff928e"
         offset="1"
         id="stop506" /></linearGradient><clipPath
       clipPathUnits="userSpaceOnUse"
       id="clipPath518"><path
         d="m 9633.27,21168.3 c 0,0 479.13,-922.9 413.03,-1293.3 -66.09,-370.3 -670.45,-337.9 -1195.54,-31.6 l -359.47,995.1 z"
         id="path516" /></clipPath><linearGradient
       x1="0"
       y1="0"
       x2="1"
       y2="0"
       gradientUnits="userSpaceOnUse"
       gradientTransform="matrix(-1476.97,920.189,920.189,1476.97,9882.15,20107)"
       spreadMethod="pad"
       id="linearGradient524"><stop
         style="stop-opacity:1;stop-color:#febbba"
         offset="0"
         id="stop520" /><stop
         style="stop-opacity:1;stop-color:#ff928e"
         offset="1"
         id="stop522" /></linearGradient><clipPath
       clipPathUnits="userSpaceOnUse"
       id="clipPath534"><path
         d="m 8878.75,20330.1 c 21.54,9.3 29.71,35.5 17.05,55.3 -38.52,60 -110.62,182.5 -132.98,289.4 0,0 -87.17,57 224.46,128.5 311.62,71.4 776.38,182.5 876.36,446.2 97.48,257.2 -145.98,908.4 -549.22,395.2 -15.34,-19.5 -45.02,-19.7 -59.97,0.2 -64.48,85.6 -234.46,263.6 -473.82,158.9 -223.97,-97.9 -250.66,-261.1 -248.38,-343.5 0.67,-24.3 -21.18,-42.9 -44.95,-38.1 -112.55,22.6 -382.98,43.6 -511.93,-232.8 -106.21,-227.6 -39.83,-357.7 21.15,-421.6 19.75,-20.7 10.69,-54.4 -16.75,-62.5 -74.34,-22 -170.62,-83.9 -162.7,-257.6 10.96,-240.2 279.53,-221.6 356.03,-211.4 12.54,1.7 25.12,-2.7 33.5,-12.2 64.83,-73.1 357.06,-383.8 676.18,-423.9 27.64,-3.5 49.34,23.6 40.53,50 l -134.42,403.3 c -6.25,18.7 2.88,39.1 21,46.9 z"
         id="path532" /></clipPath><linearGradient
       x1="0"
       y1="0"
       x2="1"
       y2="0"
       gradientUnits="userSpaceOnUse"
       gradientTransform="matrix(1904.77,-1534.03,-1534.03,-1904.77,7627.91,21989.8)"
       spreadMethod="pad"
       id="linearGradient540"><stop
         style="stop-opacity:1;stop-color:#09005d"
         offset="0"
         id="stop536" /><stop
         style="stop-opacity:1;stop-color:#1a0f91"
         offset="1"
         id="stop538" /></linearGradient><clipPath
       clipPathUnits="userSpaceOnUse"
       id="clipPath550"><path
         d="m 8933.78,20272.5 c 0,0 -345.08,241.7 -372.37,41.2 -27.29,-200.4 310.01,-293.7 478.23,-220.4 z"
         id="path548" /></clipPath><linearGradient
       x1="0"
       y1="0"
       x2="1"
       y2="0"
       gradientUnits="userSpaceOnUse"
       gradientTransform="matrix(-1328.85,827.91,827.91,1328.85,9488.74,19772.9)"
       spreadMethod="pad"
       id="linearGradient556"><stop
         style="stop-opacity:1;stop-color:#febbba"
         offset="0"
         id="stop552" /><stop
         style="stop-opacity:1;stop-color:#ff928e"
         offset="1"
         id="stop554" /></linearGradient><clipPath
       clipPathUnits="userSpaceOnUse"
       id="clipPath566"><path
         d="m 8467.74,14576.3 801.94,2800.6 c 9.1,31.8 36.22,55 69.07,58.8 145.3,17 566.32,64.6 1052.45,105.7 585.5,49.5 1265.5,89.6 1671.8,55.5 57.8,-4.9 92.7,-66 67,-117.9 -231.1,-467.5 -1181.5,-2369.1 -1657.5,-2992 -15.7,-20.7 -40.1,-32.7 -66.1,-32.5 l -1860.65,17.3 c -54.14,0.5 -92.91,52.5 -78.01,104.5 z"
         id="path564" /></clipPath><linearGradient
       x1="0"
       y1="0"
       x2="1"
       y2="0"
       gradientUnits="userSpaceOnUse"
       gradientTransform="matrix(1885.71,-7857.13,-7857.13,-1885.71,9876.27,17806.4)"
       spreadMethod="pad"
       id="linearGradient572"><stop
         style="stop-opacity:1;stop-color:#09005d"
         offset="0"
         id="stop568" /><stop
         style="stop-opacity:1;stop-color:#1a0f91"
         offset="1"
         id="stop570" /></linearGradient><clipPath
       clipPathUnits="userSpaceOnUse"
       id="clipPath582"><path
         d="m 8661.49,15252.9 c 0,0 -111.71,459.4 -66.65,622.4 45.06,163 132.37,372.5 423.38,325.9 291.03,-46.5 634.31,-169.1 634.31,-169.1 0,0 -17.34,-212.3 -238.52,-143.8 l 137.16,-106.2 c 0,0 -19.6,-169.9 -206.43,-79.1 l 127.57,-140.8 c 0,0 -80.24,-139.6 -217.69,-50 -137.45,89.5 -203.34,-314.6 -593.13,-259.3 z"
         id="path580" /></clipPath><linearGradient
       x1="0"
       y1="0"
       x2="1"
       y2="0"
       gradientUnits="userSpaceOnUse"
       gradientTransform="matrix(1068.4,0,0,-1068.4,8584.13,15727.8)"
       spreadMethod="pad"
       id="linearGradient588"><stop
         style="stop-opacity:1;stop-color:#febbba"
         offset="0"
         id="stop584" /><stop
         style="stop-opacity:1;stop-color:#ff928e"
         offset="1"
         id="stop586" /></linearGradient><clipPath
       clipPathUnits="userSpaceOnUse"
       id="clipPath602"><path
         d="m 26514.1,11496 c 0,-767.4 -622.1,-1389.5 -1389.5,-1389.5 h -4622.8 c -767.4,0 -1389.5,622.1 -1389.5,1389.5 v 26.2 c 0,767.4 622.1,1389.5 1389.5,1389.5 h 4622.8 c 767.4,0 1389.5,-622.1 1389.5,-1389.5 z"
         id="path600" /></clipPath><linearGradient
       x1="0"
       y1="0"
       x2="1"
       y2="0"
       gradientUnits="userSpaceOnUse"
       gradientTransform="matrix(-1886.15,-6870.99,-6870.99,1886.15,26817.6,26096.8)"
       spreadMethod="pad"
       id="linearGradient608"><stop
         style="stop-opacity:1;stop-color:#ff928e"
         offset="0"
         id="stop604" /><stop
         style="stop-opacity:1;stop-color:#fe7062"
         offset="1"
         id="stop606" /></linearGradient><linearGradient
       inkscape:collect="always"
       xlink:href="#linearGradient98"
       id="linearGradient941"
       x1="12715.9"
       y1="31034.801"
       x2="10041"
       y2="26840.4"
       gradientUnits="userSpaceOnUse" /><linearGradient
       inkscape:collect="always"
       xlink:href="#linearGradient98"
       id="linearGradient1275"
       x1="10041"
       y1="26840.4"
       x2="11554.384"
       y2="25569.812"
       gradientUnits="userSpaceOnUse" /><linearGradient
       inkscape:collect="always"
       xlink:href="#linearGradient82"
       id="linearGradient1387"
       x1="16192.7"
       y1="30989.9"
       x2="15948.31"
       y2="25489.471"
       gradientUnits="userSpaceOnUse" /><linearGradient
       inkscape:collect="always"
       xlink:href="#linearGradient82"
       id="linearGradient1389"
       x1="16192.7"
       y1="30989.9"
       x2="15948.31"
       y2="25489.471"
       gradientUnits="userSpaceOnUse" /><linearGradient
       inkscape:collect="always"
       xlink:href="#linearGradient114"
       id="linearGradient1565"
       x1="21584.5"
       y1="30935.301"
       x2="20348.633"
       y2="24996.803"
       gradientUnits="userSpaceOnUse" /><linearGradient
       inkscape:collect="always"
       xlink:href="#linearGradient114"
       id="linearGradient1567"
       x1="21584.5"
       y1="30935.301"
       x2="20348.633"
       y2="24996.803"
       gradientUnits="userSpaceOnUse" /><linearGradient
       inkscape:collect="always"
       xlink:href="#linearGradient98"
       id="linearGradient2055"
       x1="24874.693"
       y1="29351.951"
       x2="25831.848"
       y2="25799.697"
       gradientUnits="userSpaceOnUse" /><linearGradient
       inkscape:collect="always"
       xlink:href="#linearGradient82"
       id="linearGradient2371"
       x1="27039.1"
       y1="26636.6"
       x2="25577.688"
       y2="25089.711"
       gradientUnits="userSpaceOnUse" /><linearGradient
       inkscape:collect="always"
       xlink:href="#linearGradient2553"
       id="linearGradient2483"
       x1="7641.04"
       y1="17145.1"
       x2="8122.0898"
       y2="13694.7"
       gradientUnits="userSpaceOnUse" /><linearGradient
       inkscape:collect="always"
       xlink:href="#linearGradient364"
       id="linearGradient2683"
       x1="20741.5"
       y1="12288.5"
       x2="24350.6"
       y2="11382.5"
       gradientUnits="userSpaceOnUse" /><linearGradient
       inkscape:collect="always"
       xlink:href="#linearGradient364"
       id="linearGradient3495"
       gradientUnits="userSpaceOnUse"
       x1="20741.5"
       y1="12288.5"
       x2="24350.6"
       y2="11382.5" /><linearGradient
       inkscape:collect="always"
       xlink:href="#linearGradient364"
       id="linearGradient3497"
       gradientUnits="userSpaceOnUse"
       x1="20741.5"
       y1="12288.5"
       x2="24350.6"
       y2="11382.5" /><linearGradient
       inkscape:collect="always"
       xlink:href="#linearGradient2553"
       id="linearGradient3499"
       gradientUnits="userSpaceOnUse"
       x1="7641.04"
       y1="17145.1"
       x2="8122.0898"
       y2="13694.7" /><linearGradient
       inkscape:collect="always"
       xlink:href="#linearGradient2553"
       id="linearGradient3501"
       gradientUnits="userSpaceOnUse"
       x1="7641.04"
       y1="17145.1"
       x2="8122.0898"
       y2="13694.7" /><linearGradient
       inkscape:collect="always"
       xlink:href="#linearGradient396"
       id="linearGradient3503"
       gradientUnits="userSpaceOnUse"
       gradientTransform="matrix(-5128.86,-6815.03,-6815.03,5128.86,10759.7,14087)"
       x1="0"
       y1="0"
       x2="1"
       y2="0"
       spreadMethod="pad" /><linearGradient
       inkscape:collect="always"
       xlink:href="#linearGradient364"
       id="linearGradient3505"
       gradientUnits="userSpaceOnUse"
       gradientTransform="matrix(-6012.32,-6416.3,-6416.3,6012.32,9794.21,7336.9)"
       x1="0"
       y1="0"
       x2="1"
       y2="0"
       spreadMethod="pad" /><linearGradient
       inkscape:collect="always"
       xlink:href="#linearGradient82"
       id="linearGradient3507"
       gradientUnits="userSpaceOnUse"
       x1="27039.1"
       y1="26636.6"
       x2="25577.688"
       y2="25089.711" /><linearGradient
       inkscape:collect="always"
       xlink:href="#linearGradient82"
       id="linearGradient3509"
       gradientUnits="userSpaceOnUse"
       x1="27039.1"
       y1="26636.6"
       x2="25577.688"
       y2="25089.711" /><linearGradient
       inkscape:collect="always"
       xlink:href="#linearGradient114"
       id="linearGradient3511"
       gradientUnits="userSpaceOnUse"
       x1="21584.5"
       y1="30935.301"
       x2="20348.633"
       y2="24996.803" /><linearGradient
       inkscape:collect="always"
       xlink:href="#linearGradient114"
       id="linearGradient3513"
       gradientUnits="userSpaceOnUse"
       x1="21584.5"
       y1="30935.301"
       x2="20348.633"
       y2="24996.803" /><linearGradient
       inkscape:collect="always"
       xlink:href="#linearGradient82"
       id="linearGradient3515"
       gradientUnits="userSpaceOnUse"
       x1="16192.7"
       y1="30989.9"
       x2="15948.31"
       y2="25489.471" /><linearGradient
       inkscape:collect="always"
       xlink:href="#linearGradient82"
       id="linearGradient3517"
       gradientUnits="userSpaceOnUse"
       x1="16192.7"
       y1="30989.9"
       x2="15948.31"
       y2="25489.471" /><linearGradient
       inkscape:collect="always"
       xlink:href="#linearGradient98"
       id="linearGradient3519"
       gradientUnits="userSpaceOnUse"
       x1="10041"
       y1="26840.4"
       x2="11554.384"
       y2="25569.812" /><linearGradient
       inkscape:collect="always"
       xlink:href="#linearGradient98"
       id="linearGradient3521"
       gradientUnits="userSpaceOnUse"
       x1="10041"
       y1="26840.4"
       x2="11554.384"
       y2="25569.812" /><linearGradient
       inkscape:collect="always"
       xlink:href="#linearGradient98"
       id="linearGradient3523"
       gradientUnits="userSpaceOnUse"
       x1="24874.693"
       y1="29351.951"
       x2="25831.848"
       y2="25799.697" /><linearGradient
       inkscape:collect="always"
       xlink:href="#linearGradient98"
       id="linearGradient3525"
       gradientUnits="userSpaceOnUse"
       x1="24874.693"
       y1="29351.951"
       x2="25831.848"
       y2="25799.697" /><linearGradient
       inkscape:collect="always"
       xlink:href="#linearGradient114"
       id="linearGradient3527"
       gradientUnits="userSpaceOnUse"
       x1="21584.5"
       y1="30935.301"
       x2="20348.633"
       y2="24996.803" /><linearGradient
       inkscape:collect="always"
       xlink:href="#linearGradient114"
       id="linearGradient3529"
       gradientUnits="userSpaceOnUse"
       x1="21584.5"
       y1="30935.301"
       x2="20348.633"
       y2="24996.803" /><linearGradient
       inkscape:collect="always"
       xlink:href="#linearGradient82"
       id="linearGradient3531"
       gradientUnits="userSpaceOnUse"
       x1="16192.7"
       y1="30989.9"
       x2="15948.31"
       y2="25489.471" /><linearGradient
       inkscape:collect="always"
       xlink:href="#linearGradient82"
       id="linearGradient3533"
       gradientUnits="userSpaceOnUse"
       x1="16192.7"
       y1="30989.9"
       x2="15948.31"
       y2="25489.471" /><linearGradient
       inkscape:collect="always"
       xlink:href="#linearGradient98"
       id="linearGradient3535"
       gradientUnits="userSpaceOnUse"
       x1="12715.9"
       y1="31034.801"
       x2="10041"
       y2="26840.4" /><linearGradient
       inkscape:collect="always"
       xlink:href="#linearGradient98"
       id="linearGradient3537"
       gradientUnits="userSpaceOnUse"
       x1="12715.9"
       y1="31034.801"
       x2="10041"
       y2="26840.4" /><linearGradient
       inkscape:collect="always"
       xlink:href="#linearGradient114"
       id="linearGradient3539"
       gradientUnits="userSpaceOnUse"
       gradientTransform="matrix(15761.3,0,0,-15761.3,12061,19731.1)"
       x1="0"
       y1="0"
       x2="1"
       y2="0"
       spreadMethod="pad" /><linearGradient
       inkscape:collect="always"
       xlink:href="#linearGradient98"
       id="linearGradient3541"
       gradientUnits="userSpaceOnUse"
       gradientTransform="matrix(15761.3,0,0,-15761.3,12061,19731.1)"
       x1="0"
       y1="0"
       x2="1"
       y2="0"
       spreadMethod="pad" /><linearGradient
       inkscape:collect="always"
       xlink:href="#linearGradient82"
       id="linearGradient3543"
       gradientUnits="userSpaceOnUse"
       gradientTransform="matrix(-910.994,-18725.8,-18725.8,910.994,21356.9,44835.7)"
       x1="0"
       y1="0"
       x2="1"
       y2="0"
       spreadMethod="pad" /></defs><sodipodi:namedview
     id="namedview4"
     pagecolor="#ffffff"
     bordercolor="#666666"
     borderopacity="1.0"
     inkscape:pageshadow="2"
     inkscape:pageopacity="0.0"
     inkscape:pagecheckerboard="0"
     showgrid="false"
     inkscape:zoom="0.10363594"
     inkscape:cx="2470.1856"
     inkscape:cy="2470.1856"
     inkscape:window-width="1920"
     inkscape:window-height="955"
     inkscape:window-x="0"
     inkscape:window-y="27"
     inkscape:window-maximized="1"
     inkscape:current-layer="g8" /><g
     id="g8"
     inkscape:groupmode="layer"
     inkscape:label="ink_ext_XXXXXX"
     transform="matrix(1.3333333,0,0,-1.3333333,0,4946.6667)"><g
       id="g14"
       transform="matrix(0.10656856,0,0,0.09370752,-475.31056,-237.49201)"><g
         id="g16"
         clip-path="url(#clipPath20)"><path
           d="m 11262.2,6228.7 c -1104.5,373.8 -2123.94,901.6 -3069.41,1755.8 -4496.53,4062.4 -4277.84,12537 -841.92,17786.6 244.53,373.6 1577.97,2354.9 3790.63,4034.4 -29.6,-5464.3 -75.1,-18405.4 120.7,-23576.8 m 19395.9,4812.6 c 331.9,2617.8 758,4029.3 1000.4,4671.1 41.8,110.5 -45.8,212.5 -146.7,212.5 -28.1,0 -57.3,-7.9 -84.9,-25.8 -133.2,-86.1 -292.8,-194.3 -471.8,-325.2 145.6,2201.1 40.8,4085.6 332.8,4986.8 26.7,82.6 -39.7,154 -113.4,154 -23.6,0 -48,-7.3 -70.2,-23.9 -526.7,-392.8 -1487.4,-1246.1 -2218,-2670.4 -50.4,3520.4 -139.6,7152.7 -294.6,10023.1 419.2,-459.5 869.8,-1020.9 1304.2,-1691.8 2833.3,-4375.8 3275.5,-10784.9 762.2,-15310.4"
           style="fill:url(#linearGradient26);fill-opacity:1;fill-rule:nonzero;stroke:none"
           id="path28" /></g></g><path
       d="m 2858.9953,1689.2001 c 3.7621,10.2142 -9.783,18.6103 -19.5659,12.1913 -99.3964,-65.1829 -343.8754,-265.6795 -340.2734,-659.1385 4.5185,-493.64185 -133.786,-659.78522 -291.3796,-753.80208 0,0 203.7697,31.25138 351.1327,199.1379 361.8108,412.18189 233.1719,1020.00628 300.0862,1201.61138"
       style="fill:#91b3fa;fill-opacity:1;fill-rule:nonzero;stroke:none;stroke-width:0.0999317"
       id="path30" /><path
       d="m 2633.1978,1069.5498 c 3.826,24.2984 8.0888,48.55 12.7777,72.7265 2.579,13.7375 5.4458,27.4281 8.3017,41.1282 2.9945,13.6625 6.0744,27.3251 9.2822,40.9503 12.9479,54.4909 27.793,108.6162 44.5457,162.245 17.0508,53.5632 35.7108,106.7143 56.6731,159.1342 0.4687,1.1901 1.737,1.9304 3.0798,1.9304 0.3623,0 0.7245,-0.055 1.0868,-0.1687 1.6519,-0.506 2.5471,-2.0803 2.0463,-3.5422 -18.2445,-53.0853 -35.2848,-106.4518 -50.0871,-160.296 -15.1116,-53.7601 -28.3687,-107.9042 -39.6863,-162.3295 -8.6427,-42.4871 -16.582,-85.0865 -23.104,-127.8359 -8.291,-7.7215 -16.6141,-15.7147 -24.9159,-23.9423"
       style="fill:#c0d6fc;fill-opacity:1;fill-rule:nonzero;stroke:none;stroke-width:0.0999317"
       id="path32" /><path
       d="m 2381.3979,259.58895 c 3.2823,-16.37079 24.5107,-24.46712 40.4853,-15.58364 88.1321,49.01835 323.0836,207.44044 365.6154,521.81034 35.9134,265.46405 84.0826,406.40945 110.991,469.06255 5.6907,13.2501 -11.1577,25.1885 -24.6812,17.4949 -149.2279,-84.8144 -611.2026,-399.67181 -492.4105,-992.78415"
       style="fill:#bdd0fb;fill-opacity:1;fill-rule:nonzero;stroke:none;stroke-width:0.0999317"
       id="path34" /><path
       d="m 2609.6249,593.88105 c 0,11.44171 -0.016,23.14579 -0.021,35.00917 46.3042,104.50274 88.4947,223.09894 111.2257,344.24394 0.5967,3.17683 3.73,5.42575 7.2786,5.42575 0.3945,0 0.7993,-0.0283 1.2043,-0.0848 4.0282,-0.59036 6.7457,-3.92632 6.0851,-7.45906 -25.1503,-133.97363 -73.884,-264.79869 -125.7723,-377.13522"
       style="fill:#dce6fd;fill-opacity:1;fill-rule:nonzero;stroke:none;stroke-width:0.0999317"
       id="path36" /><g
       id="g38"
       transform="matrix(0.10656856,0,0,0.09370752,-475.31056,-237.49201)"><g
         id="g40"
         clip-path="url(#clipPath44)"><path
           d="m 19340.5,4848.8 c -3054.7,0 -5928.1,40.1 -7152.9,68.6 -490.6,11.4 -890.6,465.9 -914.6,1039.3 -3.7,88.2 -7.3,178.7 -10.8,272 -195.8,5171.4 -150.3,18112.5 -120.7,23576.8 2.7,490.3 5.2,919.9 7.4,1278.8 4.5,724.6 479.9,1324.1 1097.2,1380.3 659,60 1522.1,85.4 2505.7,85.4 4125.8,0 10366.7,-447.2 12503.1,-664.8 613.8,-62.5 1103.9,-626.8 1166.5,-1343.8 64.2,-735.3 120.6,-1577.2 170.3,-2497.9 155,-2870.4 244.2,-6502.7 294.6,-10023.1 21.3,-1492 35.7,-2963.8 45.1,-4349.4 11.2,-1631 15.5,-3142.2 16.3,-4425.4 0.1,-126.6 0.2,-251.5 0.2,-373.6 0.1,-788.2 -1,-1479.3 -2.6,-2045.6 -0.1,-39.1 -1.2,-78 -3.4,-116.5 -51.7,-913.9 -677.9,-1645.8 -1470.1,-1696.6 -1963,-125.9 -5134.4,-164.5 -8131.3,-164.5 m -4179,26113 c -781.1,0 -1453.6,-17 -1955.4,-56.6 -528.3,-41.7 -941.4,-544.4 -954.7,-1163.7 -76.9,-3577.3 -310.1,-15478 -113.4,-19874.4 28.7,-642.6 469.6,-1155.9 1019.1,-1185.2 1349.4,-72.1 4639.4,-181.4 7777,-181.4 2123,0 4175.9,50 5511.9,195.4 596.1,64.9 1056,636.7 1077.7,1336.7 113.3,3650.2 429.4,14732.8 238.8,19080 -30.4,693.5 -498.3,1253.2 -1090.2,1306.4 -2012.4,180.9 -7910.4,542.8 -11510.8,542.8"
           style="fill:url(#linearGradient50);fill-opacity:1;fill-rule:nonzero;stroke:none"
           id="path52" /></g></g><g
       id="g54"
       transform="matrix(0.10656856,0,0,0.09370752,-475.31056,-237.49201)"><g
         id="g56"
         clip-path="url(#clipPath60)"><path
           d="m 20934.1,8500.5 c -3137.6,0 -6427.6,109.3 -7777,181.4 -549.5,29.3 -990.4,542.6 -1019.1,1185.2 -196.7,4396.4 36.5,16297.1 113.4,19874.4 13.3,619.3 426.4,1122 954.7,1163.7 501.8,39.6 1174.3,56.6 1955.4,56.6 3600.4,0 9498.4,-361.9 11510.8,-542.8 591.9,-53.2 1059.8,-612.9 1090.2,-1306.4 190.6,-4347.2 -125.5,-15429.8 -238.8,-19080 -21.7,-700 -481.6,-1271.8 -1077.7,-1336.7 -1336,-145.4 -3388.9,-195.4 -5511.9,-195.4 m 3157.1,6838.6 c -328.8,0 -593.1,-251.3 -593.1,-564.5 0,-316.4 269.7,-580.8 603.1,-589.6 5.7,-0.1 11.4,-0.2 17,-0.2 327.7,0 593,249.9 593,564.4 0,320 -274.5,584.6 -610,589.8 -3.3,0 -6.7,0.1 -10,0.1 m -2573.2,40 c -313.4,0 -565.4,-245.5 -565.4,-551.3 0,-308.8 257.1,-566.8 574.7,-575.2 5.3,-0.1 10.6,-0.2 15.9,-0.2 312.3,0 565.2,244.2 565.2,551.3 0,312.2 -261.4,570.3 -581.1,575.3 -3.1,0 -6.2,0.1 -9.3,0.1 M 19649.1,19448 20817,15716.1 c 19.7,-62.8 78.7,-106 145.5,-106.9 l 3861.1,-51.9 c 1,0 1.9,0 2.9,0 89.3,0 161.3,56.6 161.3,141.4 0,85.6 -73.5,144.3 -164.2,145.3 l -3748.4,40.4 -300.9,969 4119.3,-6.3 c 0.1,0 0.2,0 0.3,0 84.2,0 158.4,55.2 182,131.6 l 650.1,2102.1 c 17,54.8 5.5,111.3 -30.8,156 -35.2,43.2 -89.7,61.9 -148,61.9 -1.9,0 -3.8,0 -5.7,0 l -5501,-115.4 -139,441.4 c -18.9,60.2 -74.7,99.2 -138.4,99.2 -1.4,0 -2.7,0 -4.1,-0.1 l -755.3,-19.8 c -81,-2.1 -146.6,-58.4 -146.6,-139.3 0,-79.4 63.3,-132 142.4,-132 1.4,0 2.8,0 4.2,0.1 l 645.4,15.2 m 4459.2,-4955.3 c -2.4,0 -4.7,0 -7.1,0 -155.8,3.7 -282.3,127.1 -282.3,275.2 0,146.3 123.5,263.4 276.8,263.4 1.8,0 3.7,0 5.5,-0.1 156.3,-2.8 283.8,-126.3 283.8,-275.1 0,-146.7 -123.7,-263.4 -276.7,-263.4 m -2574.4,60.2 c -2.2,0 -4.3,0.1 -6.6,0.1 -148.4,3.5 -268.9,123.9 -268.9,268.4 0,142.9 117.7,257.3 263.8,257.3 1.7,0 3.4,0 5.1,-0.1 148.9,-2.7 270.4,-123.1 270.4,-268.4 0,-143.2 -117.9,-257.3 -263.8,-257.3"
           style="fill:url(#linearGradient66);fill-opacity:1;fill-rule:nonzero;stroke:none"
           id="path68" /></g></g><g
       id="g70"
       transform="matrix(0.10656856,0,0,0.09370752,-475.31056,-237.49201)"><g
         id="g72"
         clip-path="url(#clipPath76)"><path
           d="m 19039.9,31682.7 v 0 c 2.1,-136 94.3,-246.7 210.4,-252.1 573.4,-26.5 2188.4,-101.5 2910.3,-139.7 142.3,-7.5 251.7,143.7 222.3,306.9 l -5.1,27.9 c -20,111.3 -100.4,194.2 -197.4,203.1 -454.8,41.9 -1927.7,169.6 -2935.1,112.4 -117.1,-6.6 -207.4,-121.5 -205.4,-258.5"
           style="fill:url(#linearGradient3543);fill-opacity:1;fill-rule:nonzero;stroke:none"
           id="path84" /></g></g><g
       id="g86"
       transform="matrix(0.10656856,0,0,0.09370752,-475.31056,-237.49201)"><g
         id="g88"
         clip-path="url(#clipPath92)"><path
           d="m 24826.5,15557.3 c -1,0 -1.9,0 -2.9,0 l -3861.1,51.9 c -66.8,0.9 -125.8,44.1 -145.5,106.9 l -1167.9,3731.9 -645.4,-15.2 c -1.4,-0.1 -2.8,-0.1 -4.2,-0.1 -79.1,0 -142.4,52.6 -142.4,132 0,80.9 65.6,137.2 146.6,139.3 l 755.3,19.8 c 1.4,0.1 2.7,0.1 4.1,0.1 63.7,0 119.5,-39 138.4,-99.2 l 139,-441.4 5501,115.4 c 1.9,0 3.8,0 5.7,0 58.3,0 112.8,-18.7 148,-61.9 36.3,-44.7 47.8,-101.2 30.8,-156 l -650.1,-2102.1 c -23.6,-76.4 -97.8,-131.6 -182,-131.6 -0.1,0 -0.2,0 -0.3,0 l -4119.3,6.3 300.9,-969 3748.4,-40.4 c 90.7,-1 164.2,-59.7 164.2,-145.3 0,-84.8 -72,-141.4 -161.3,-141.4"
           style="fill:url(#linearGradient3541);fill-opacity:1;fill-rule:nonzero;stroke:none"
           id="path100" /></g></g><g
       id="g102"
       transform="matrix(0.10656856,0,0,0.09370752,-475.31056,-237.49201)"><g
         id="g104"
         clip-path="url(#clipPath108)"><path
           d="m 21543.2,14252.4 c -5.3,0 -10.6,0.1 -15.9,0.2 -317.6,8.4 -574.7,266.4 -574.7,575.2 0,305.8 252,551.3 565.4,551.3 3.1,0 6.2,-0.1 9.3,-0.1 319.7,-5 581.1,-263.1 581.1,-575.3 0,-307.1 -252.9,-551.3 -565.2,-551.3 m -21,826.3 c -146.1,0 -263.8,-114.4 -263.8,-257.3 0,-144.5 120.5,-264.9 268.9,-268.4 2.3,0 4.4,-0.1 6.6,-0.1 145.9,0 263.8,114.1 263.8,257.3 0,145.3 -121.5,265.7 -270.4,268.4 -1.7,0.1 -3.4,0.1 -5.1,0.1"
           style="fill:url(#linearGradient3539);fill-opacity:1;fill-rule:nonzero;stroke:none"
           id="path116" /></g></g><g
       id="g118"
       transform="matrix(0.10656856,0,0,0.09370752,-475.31056,-237.49201)"><g
         id="g120"
         clip-path="url(#clipPath124)"><path
           d="m 24118.2,14184.8 c -5.6,0 -11.3,0.1 -17,0.2 -333.4,8.8 -603.1,273.2 -603.1,589.6 0,313.2 264.3,564.5 593.1,564.5 3.3,0 6.7,-0.1 10,-0.1 335.5,-5.2 610,-269.8 610,-589.8 0,-314.5 -265.3,-564.4 -593,-564.4 m -22.5,846.5 c -153.3,0 -276.8,-117.1 -276.8,-263.4 0,-148.1 126.5,-271.5 282.3,-275.2 2.4,0 4.7,0 7.1,0 153,0 276.7,116.7 276.7,263.4 0,148.8 -127.5,272.3 -283.8,275.1 -1.8,0.1 -3.7,0.1 -5.5,0.1"
           style="fill:url(#linearGradient130);fill-opacity:1;fill-rule:nonzero;stroke:none"
           id="path132" /></g></g><g
       id="g134"
       transform="matrix(0.10656856,0,0,0.09370752,-475.31056,-237.49201)"
       style="fill:url(#linearGradient941);fill-opacity:1"><g
         id="g136"
         clip-path="url(#clipPath140)"
         style="fill:url(#linearGradient3537);fill-opacity:1"><path
           d="m 12715.9,31034.8 c -73.3,0.7 -141.8,-27.4 -181.7,-92.6 -838.7,-1370.8 -1678,-2790.8 -2516.1,-4101.6 810.6,-8.2 1621.1,-16.4 2431.7,-24.6 647.6,1312.7 1296.9,2776.1 1945.7,4201.8 -559.9,5.7 -1119.8,11.3 -1679.6,17"
           style="fill:url(#linearGradient3535);fill-opacity:1;fill-rule:nonzero;stroke:none"
           id="path148" /></g></g><path
       d="m 1110.536,2270.0838 c -86.3737,0.7683 -172.74754,1.5366 -259.13204,2.3053 69.13098,131.94 138.25135,263.8709 207.38244,395.8017 63.8451,-0.5622 127.6903,-1.1339 191.5355,-1.6961 -46.5917,-132.137 -93.1834,-264.274 -139.7859,-396.4109"
       style="fill:#bdd0fb;fill-opacity:1;fill-rule:nonzero;stroke:none;stroke-width:0.0999317"
       id="path150" /><g
       id="g152"
       transform="matrix(0.10656856,0,0,0.09370752,-475.31056,-237.49201)"
       style="fill:url(#linearGradient1387);fill-opacity:1"><g
         id="g154"
         clip-path="url(#clipPath158)"
         style="fill:url(#linearGradient3533);fill-opacity:1"><path
           d="m 17312.7,26735 c -810.6,8.2 -1621.1,16.4 -2431.7,24.6 437.3,1410.1 874.5,2820.2 1311.7,4230.3 599.1,-6.1 1198.1,-12.2 1797.3,-18.2 -225.8,-1412.3 -451.6,-2824.5 -677.3,-4236.7"
           style="fill:url(#linearGradient3531);fill-opacity:1;fill-rule:nonzero;stroke:none"
           id="path166" /></g></g><path
       d="m 1628.8108,2265.4732 c -86.3739,0.7685 -172.7584,1.537 -259.1322,2.3053 24.0526,132.3337 48.1159,264.6676 72.179,397.0105 63.8452,-0.5716 127.6798,-1.1431 191.5249,-1.7053 -1.5239,-132.5398 -3.0479,-265.0704 -4.5717,-397.6105"
       style="fill:#bdd0fb;fill-opacity:1;fill-rule:nonzero;stroke:none;stroke-width:0.0999317"
       id="path168" /><g
       id="g170"
       transform="matrix(0.10656856,0,0,0.09370752,-475.31056,-237.49201)"
       style="fill:url(#linearGradient1565);fill-opacity:1"><g
         id="g172"
         clip-path="url(#clipPath176)"
         style="fill:url(#linearGradient3529);fill-opacity:1"><path
           d="m 22175.9,26685.8 c -810.5,8.2 -1621.1,16.4 -2431.6,24.6 14.3,1414.4 28.6,2828.7 42.9,4243.1 599.1,-6.1 1198.2,-12.1 1797.3,-18.2 197.1,-1416.5 394.3,-2833 591.4,-4249.5"
           style="fill:url(#linearGradient3527);fill-opacity:1;fill-rule:nonzero;stroke:none"
           id="path184" /></g></g><path
       d="m 2147.0748,2260.8629 c -86.3736,0.7684 -172.7476,1.5367 -259.1321,2.3051 -21.0046,132.7368 -42.0198,265.4734 -63.0245,398.2102 63.8452,-0.5716 127.6904,-1.1338 191.5357,-1.7055 43.5332,-132.9335 87.077,-265.8668 130.6209,-398.8098"
       style="fill:#bdd0fb;fill-opacity:1;fill-rule:nonzero;stroke:none;stroke-width:0.0999317"
       id="path186" /><g
       id="g188"
       transform="matrix(0.10656856,0,0,0.09370752,-475.31056,-237.49201)"
       style="fill:url(#linearGradient2055);fill-opacity:1"><g
         id="g190"
         clip-path="url(#clipPath194)"
         style="fill:url(#linearGradient3525);fill-opacity:1"><path
           d="m 27039.1,26636.6 c -810.5,8.2 -1621,16.4 -2431.6,24.6 -408.6,1418.7 -817.2,2837.3 -1225.7,4255.9 599.1,-6.1 1198.1,-12.1 1797.3,-18.2 620,-1420.7 1240,-2841.5 1860,-4262.3"
           style="fill:url(#linearGradient3523);fill-opacity:1;fill-rule:nonzero;stroke:none"
           id="path202" /></g></g><path
       d="m 2406.1429,2648.2685 c -4.1027,6.1846 -11.3493,8.9585 -19.1503,9.024 -59.6677,0.5341 -119.3355,1.059 -178.9924,1.5931 66.051,-134.8078 132.0598,-273.1388 198.2494,-397.348 l 251.9601,-2.2396 c 2.8879,-0.028 4.5396,3.7296 2.7492,6.2971 -84.9883,122.6069 -169.8809,254.8658 -254.816,382.6734"
       style="fill:#bdd0fb;fill-opacity:1;fill-rule:nonzero;stroke:none;stroke-width:0.0999317"
       id="path204" /><g
       id="g206"
       transform="matrix(0.10656856,0,0,0.09370752,-475.31056,-237.49201)"
       style="fill:url(#linearGradient1275);fill-opacity:1"><g
         id="g208"
         clip-path="url(#clipPath212)"
         style="fill:url(#linearGradient3521);fill-opacity:1"><path
           d="m 10041,26840.4 c -32,0.3 -58.21,-32.8 -58.63,-74 l -6.68,-660.4 c -6.19,-612.2 576.01,-1079.9 1245.71,-1086.7 l 26.1,-0.3 c 669.7,-6.8 1211.5,449.6 1217.7,1061.8 l 7.4,735 -2431.6,24.6"
           style="fill:url(#linearGradient3519);fill-opacity:1;fill-rule:nonzero;stroke:none"
           id="path220" /></g></g><path
       d="m 853.87635,2275.35 -0.78862,-68.8749 c -0.66084,-57.3678 53.99823,-101.1293 124.163,-101.7571 l 2.73875,-0.03 c 70.15412,-0.6182 126.36902,42.1591 127.01902,99.527 l 0.7994,68.8749 -253.93155,2.2583"
       style="fill:#91b3fa;fill-opacity:1;fill-rule:nonzero;stroke:none;stroke-width:0.0999317"
       id="path222" /><g
       id="g224"
       transform="matrix(0.10656856,0,0,0.09370752,-475.31056,-237.49201)"
       style="fill:url(#linearGradient1389);fill-opacity:1"><g
         id="g226"
         clip-path="url(#clipPath230)"
         style="fill:url(#linearGradient3517);fill-opacity:1"><path
           d="m 14855.4,26791.7 -7.5,-735 c -6.1,-612.2 562.6,-1079.8 1232.2,-1086.6 l 26.1,-0.2 c 669.7,-6.8 1189.5,449.8 1195.7,1062 l 7.4,735 -2453.9,24.8"
           style="fill:url(#linearGradient3515);fill-opacity:1;fill-rule:nonzero;stroke:none"
           id="path238" /></g></g><path
       d="m 1369.3162,2270.7678 -0.7884,-68.8751 c -0.6608,-57.3677 56.3533,-101.1573 126.5074,-101.7851 l 2.7388,-0.019 c 70.1647,-0.6278 127.8077,42.1404 128.4683,99.5081 l 0.7889,68.8751 -257.715,2.2959"
       style="fill:#91b3fa;fill-opacity:1;fill-rule:nonzero;stroke:none;stroke-width:0.0999317"
       id="path240" /><g
       id="g242"
       transform="matrix(0.10656856,0,0,0.09370752,-475.31056,-237.49201)"
       style="fill:url(#linearGradient1567);fill-opacity:1"><g
         id="g244"
         clip-path="url(#clipPath248)"
         style="fill:url(#linearGradient3513);fill-opacity:1"><path
           d="m 19727.6,26742.4 -7.4,-735 c -6.2,-612.2 549,-1079.7 1218.7,-1086.4 l 26,-0.3 c 669.7,-6.8 1167.5,450.1 1173.7,1062.2 l 7.4,735 -2418.4,24.5"
           style="fill:url(#linearGradient3511);fill-opacity:1;fill-rule:nonzero;stroke:none"
           id="path256" /></g></g><path
       d="m 1884.7564,2266.1761 -0.7886,-68.8749 c -0.6607,-57.3585 58.698,-101.1761 128.8626,-101.7946 l 2.7283,-0.028 c 70.1648,-0.6185 129.257,42.131 129.9176,99.4986 l 0.7887,68.8752 -261.5086,2.3239"
       style="fill:#91b3fa;fill-opacity:1;fill-rule:nonzero;stroke:none;stroke-width:0.0999317"
       id="path258" /><g
       id="g260"
       transform="matrix(0.10656856,0,0,0.09370752,-475.31056,-237.49201)"
       style="fill:url(#linearGradient2371);fill-opacity:1"><g
         id="g262"
         clip-path="url(#clipPath266)"
         style="fill:url(#linearGradient3509);fill-opacity:1"><path
           d="m 24599.9,26693.1 -7.4,-735 c -6.2,-612.2 535.4,-1079.5 1205.1,-1086.3 l 26.1,-0.3 c 669.7,-6.7 1216.5,449.6 1222.7,1061.8 l 7.4,735 -2453.9,24.8"
           style="fill:url(#linearGradient3507);fill-opacity:1;fill-rule:nonzero;stroke:none"
           id="path274" /></g></g><path
       d="m 2407.7735,2261.5282 -0.7886,-68.8749 c -0.6609,-57.3678 53.4654,-101.1293 123.6301,-101.7571 l 2.7282,-0.019 c 70.1647,-0.6277 126.9124,42.1496 127.5732,99.5175 l 0.7887,68.8749 -253.9316,2.2585"
       style="fill:#91b3fa;fill-opacity:1;fill-rule:nonzero;stroke:none;stroke-width:0.0999317"
       id="path276" /><path
       d="m 1413.084,1845.7105 c 0,-128.3043 -118.291,-232.3196 -264.2153,-232.3196 -145.9138,0 -264.20476,104.0153 -264.20476,232.3196 0,128.3137 118.29096,232.3289 264.20476,232.3289 145.9243,0 264.2153,-104.0152 264.2153,-232.3289"
       style="fill:#7d97f4;fill-opacity:1;fill-rule:nonzero;stroke:none;stroke-width:0.0999317"
       id="path278" /><path
       d="m 1372.0766,1847.9688 c 0,-107.3793 -98.9917,-194.4242 -221.1086,-194.4242 -122.1063,0 -221.09781,87.0449 -221.09781,194.4242 0,107.3701 98.99151,194.415 221.09781,194.415 122.1169,0 221.1086,-87.0449 221.1086,-194.415"
       style="fill:#91b3fa;fill-opacity:1;fill-rule:nonzero;stroke:none;stroke-width:0.0999317"
       id="path280" /><path
       d="m 988.21664,1848.5592 89.84786,41.1939 v -17.5516 c 0,-1.3305 -0.3836,-2.5487 -1.1402,-3.6451 -0.7566,-1.0964 -2.0035,-2.0521 -3.7406,-2.8488 l -41.1781,-18.554 c -1.7371,-0.7965 -3.57,-1.4806 -5.4989,-2.0429 -1.929,-0.5622 -3.9964,-1.0775 -6.1808,-1.5462 2.1844,-0.4591 4.2518,-0.9839 6.1808,-1.5462 1.9289,-0.5622 3.7618,-1.2463 5.4989,-2.0427 l 41.1781,-18.6572 c 1.7371,-0.7964 2.984,-1.7429 3.7406,-2.8393 0.7566,-1.0964 1.1402,-2.3145 1.1402,-3.6358 v -17.5608 l -89.84786,41.2968 v 9.9799"
       style="fill:#ffffff;fill-opacity:1;fill-rule:nonzero;stroke:none;stroke-width:0.0999317"
       id="path282" /><path
       d="m 1128.7699,1776.039 c -0.6823,-1.5368 -1.5561,-2.8582 -2.6111,-3.9921 -1.0551,-1.1338 -2.2697,-2.0802 -3.6339,-2.8393 -1.3535,-0.7683 -2.792,-1.3494 -4.3054,-1.7523 -1.5132,-0.3935 -2.9945,-0.5996 -4.4226,-0.5996 h -11.8077 l 66.2537,149.0323 c 1.2895,2.7925 3.1331,4.9384 5.5627,6.4284 2.4193,1.4992 5.3285,2.2488 8.7388,2.2488 h 11.9035 l -65.678,-148.5262"
       style="fill:#ffffff;fill-opacity:1;fill-rule:nonzero;stroke:none;stroke-width:0.0999317"
       id="path284" /><path
       d="m 1217.8185,1797.2825 v 17.5608 c 0,1.3213 0.3836,2.5394 1.1297,3.6358 0.7565,1.0964 2.0034,2.0429 3.751,2.8393 l 41.1782,18.6572 c 3.325,1.462 7.2147,2.6613 11.68,3.5889 -2.1954,0.4687 -4.2521,0.984 -6.181,1.5462 -1.929,0.5623 -3.762,1.2464 -5.499,2.0429 l -41.1782,18.554 c -1.7476,0.7967 -2.9945,1.7524 -3.751,2.8488 -0.7461,1.0964 -1.1297,2.3146 -1.1297,3.6451 v 17.5516 l 89.848,-41.1939 v -9.9799 l -89.848,-41.2968"
       style="fill:#ffffff;fill-opacity:1;fill-rule:nonzero;stroke:none;stroke-width:0.0999317"
       id="path286" /><path
       d="m 1415.4499,846.69459 c 0,-128.31374 -118.2912,-232.31965 -264.2154,-232.31965 -145.9136,0 -264.2048,104.00591 -264.2048,232.31965 0,128.31375 118.2912,232.32911 264.2048,232.32911 145.9242,0 264.2154,-104.01536 264.2154,-232.32911"
       style="fill:#7d97f4;fill-opacity:1;fill-rule:nonzero;stroke:none;stroke-width:0.0999317"
       id="path288" /><path
       d="m 1374.4422,848.95293 c 0,-107.37952 -98.9914,-194.42429 -221.1082,-194.42429 -122.1063,0 -221.09795,87.04477 -221.09795,194.42429 0,107.37011 98.99165,194.41507 221.09795,194.41507 122.1168,0 221.1082,-87.04496 221.1082,-194.41507"
       style="fill:#91b3fa;fill-opacity:1;fill-rule:nonzero;stroke:none;stroke-width:0.0999317"
       id="path290" /><path
       d="m 1152.087,961.02725 c -72.733,0 -131.7719,-51.92355 -131.7719,-115.74751 0,-63.95546 59.0389,-115.86943 131.6227,-115.86943 72.733,0 131.7827,51.91397 131.7827,115.73824 v 0.13182 c 0,63.82395 -59.0497,115.7475 -131.6335,115.7475 z m 0,-238.88863 c -77.2834,0 -140.0416,55.18433 -140.0416,123.00993 0,67.95663 62.7582,123.14097 139.8924,123.14097 77.2835,0 140.0418,-55.18434 140.0418,-123.00978 v -0.13182 c 0,-67.82559 -62.7583,-123.00992 -139.8926,-123.00992"
       style="fill:#ffffff;fill-opacity:1;fill-rule:nonzero;stroke:none;stroke-width:0.0999317"
       id="path292" /><path
       d="m 1113.424,783.39509 c -3.9109,0 -7.1295,2.74575 -7.2362,6.20348 l -3.3142,108.65394 c -0.1058,3.58892 1.865,6.89693 5.2645,8.85538 3.4102,1.96787 7.6517,2.23967 11.339,0.72155 l 122.0741,-50.20849 c 4.0178,-1.6493 6.5967,-5.10719 6.7139,-9.02409 0.1176,-3.90764 -2.2486,-7.47788 -6.1704,-9.32382 L 1134.3434,788.7645 c -3.5381,-1.64914 -7.9182,-0.47768 -9.7936,2.62399 -1.8863,3.11107 -0.5542,6.96237 2.9732,8.6211 l 102.7747,48.17503 -112.8136,46.39454 3.1864,-104.64319 c 0.1058,-3.51407 -3.0477,-6.43777 -7.044,-6.53146 l -0.2025,-0.0157"
       style="fill:#ffffff;fill-opacity:1;fill-rule:nonzero;stroke:none;stroke-width:0.0999317"
       id="path294" /><path
       d="m 1423.5917,1345.125 c 0,-128.3044 -118.291,-232.3196 -264.2155,-232.3196 -145.9136,0 -264.20461,104.0152 -264.20461,232.3196 0,128.3136 118.29101,232.3289 264.20461,232.3289 145.9245,0 264.2155,-104.0153 264.2155,-232.3289"
       style="fill:#7d97f4;fill-opacity:1;fill-rule:nonzero;stroke:none;stroke-width:0.0999317"
       id="path296" /><path
       d="m 1382.5736,1347.3832 c 0,-107.3792 -98.9917,-194.415 -221.098,-194.415 -122.1168,0 -221.10823,87.0358 -221.10823,194.415 0,107.3701 98.99143,194.415 221.10823,194.415 122.1063,0 221.098,-87.0449 221.098,-194.415"
       style="fill:#91b3fa;fill-opacity:1;fill-rule:nonzero;stroke:none;stroke-width:0.0999317"
       id="path298" /><path
       d="m 1148.1013,1452.2609 c -21.825,0 -61.3621,-7.1595 -99.13,-50.8272 -24.5959,-28.4307 -29.5728,-62.9996 -13.2891,-92.4705 18.7987,-34.0252 62.5344,-54.8001 117.0123,-55.5781 42.9472,-0.5901 78.8605,10.8889 103.8404,33.2662 26.9937,24.1579 35.7217,55.1751 34.9011,76.1469 -0.054,1.5086 -1.1082,2.3708 -1.7264,2.755 -1.1083,0.6747 -2.4722,0.8621 -3.7617,0.4873 l -115.9466,-33.5942 c -4.4761,-1.2836 -9.3781,-0.5716 -13.1294,1.9211 -3.7512,2.5019 -5.8614,6.4563 -5.6587,10.5888 l 5.0726,102.1226 c 0.065,1.3305 -0.4582,2.5956 -1.4813,3.5608 -1.023,0.9745 -2.4297,1.5368 -3.9429,1.5743 -0.8846,0.028 -1.8012,0.046 -2.7603,0.046 z m 7.8435,-208.3683 c -1.1403,0 -2.2805,0.016 -3.4316,0.019 -58.6125,0.8435 -105.9185,23.6144 -126.5182,60.9099 -18.0846,32.7507 -12.7028,71.0116 14.3975,102.3472 42.3504,48.953 87.5781,55.1751 110.81,54.5098 4.4226,-0.1225 8.5041,-1.7524 11.4988,-4.6009 2.9946,-2.8393 4.5398,-6.5409 4.3479,-10.4111 l -5.0727,-102.1223 c -0.075,-1.4806 0.9486,-2.3239 1.3962,-2.6238 0.4475,-0.2999 1.6624,-0.9372 3.2501,-0.478 l 115.9574,33.5941 c 4.5292,1.3026 9.3781,0.6841 13.2997,-1.7241 3.8578,-2.3615 6.1597,-6.0818 6.3195,-10.186 0.8953,-22.9395 -8.6,-56.8149 -37.9809,-83.1092 -26.4291,-23.6611 -63.8133,-36.1242 -108.2737,-36.1242"
       style="fill:#ffffff;fill-opacity:1;fill-rule:nonzero;stroke:none;stroke-width:0.0999317"
       id="path300" /><path
       d="m 1195.5882,1458.333 -18.3192,-95.741 c -0.1589,-0.8433 0.3731,-1.3399 0.7036,-1.5649 0.3301,-0.225 1.0123,-0.5434 1.9075,-0.1876 l 99.8334,40.5475 c 4.1773,1.6959 6.2661,5.8378 4.849,9.6329 -6.245,16.7739 -25.0544,45.9169 -80.907,52.6263 -3.8044,0.4592 -7.4278,-1.9304 -8.0673,-5.3132 z m -16.4966,-107.1172 c -2.7177,0 -5.4032,0.7777 -7.6517,2.2866 -3.7299,2.502 -5.5628,6.5877 -4.785,10.664 l 18.3084,95.7409 c 1.6306,8.518 10.4652,14.281 20.1521,13.1191 61.6608,-7.4029 82.6549,-40.1819 89.6881,-59.064 3.1013,-8.3586 -1.4385,-17.467 -10.5715,-21.1779 l -99.8334,-40.5378 c -1.705,-0.6934 -3.5061,-1.0309 -5.307,-1.0309"
       style="fill:#ffffff;fill-opacity:1;fill-rule:nonzero;stroke:none;stroke-width:0.0999317"
       id="path302" /><g
       id="g304"
       transform="matrix(0.10656856,0,0,0.09370752,-475.31056,-237.49201)"><g
         id="g306"
         clip-path="url(#clipPath310)"><path
           d="m 9231.89,5632.6 c 0,0 -64.95,-348.3 -98.46,-693.4 -13.1,-134.9 89.84,-253.1 225.16,-260 459.73,-23.5 1443.21,-70.2 1796.31,-57.8 53.1,1.9 88.3,55.9 69.2,105.4 -16.1,41.5 -47.5,75.3 -87.8,94.3 l -1617.9,762.3 -286.51,49.2"
           style="fill:url(#linearGradient316);fill-opacity:1;fill-rule:nonzero;stroke:none"
           id="path318" /></g></g><g
       id="g320"
       transform="matrix(0.10656856,0,0,0.09370752,-475.31056,-237.49201)"><g
         id="g322"
         clip-path="url(#clipPath326)"><path
           d="m 9183.36,5838 45.54,-417.8 c 0,0 283.39,-135.2 479.22,12.2 l -113.45,466.2 -411.31,-60.6"
           style="fill:url(#linearGradient332);fill-opacity:1;fill-rule:nonzero;stroke:none"
           id="path334" /></g></g><g
       id="g336"
       transform="matrix(0.10656856,0,0,0.09370752,-475.31056,-237.49201)"><g
         id="g338"
         clip-path="url(#clipPath342)"><path
           d="m 9295.42,13683.3 c -22.42,-108.7 -166.67,-5437.2 380.2,-7830.9 8.93,-39.1 -11.21,-79 -48.44,-93.8 -87.72,-34.9 -259.5,-85 -464.85,-89.9 -63.58,-1.5 -120.2,40.3 -137.54,101.5 -157.55,555.7 -911.36,3339.4 -987.85,5992.4 -85.47,2964.6 0.97,101 0.97,101 l 84.18,1831.1 1173.33,-11.4"
           style="fill:url(#linearGradient348);fill-opacity:1;fill-rule:nonzero;stroke:none"
           id="path350" /></g></g><g
       id="g352"
       transform="matrix(0.10656856,0,0,0.09370752,-475.31056,-237.49201)"><g
         id="g354"
         clip-path="url(#clipPath358)"><path
           d="m 7360.83,5468.4 c 0,0 -99.78,-175.2 -199.21,-642.3 -17.96,-84.4 40.33,-165.9 126.08,-175.1 151.72,-16.4 385.32,-37.8 572.62,-38.3 86.32,-0.3 154.42,74.3 144.84,160.1 -19.12,171 -81.07,451.9 -278.63,672.3 l -365.7,23.3"
           style="fill:url(#linearGradient3505);fill-opacity:1;fill-rule:nonzero;stroke:none"
           id="path366" /></g></g><g
       id="g368"
       transform="matrix(0.10656856,0,0,0.09370752,-475.31056,-237.49201)"><g
         id="g370"
         clip-path="url(#clipPath374)"><path
           d="m 7279.79,6006 109.68,-632.2 c 0,0 113.58,-86.2 340.46,-26.7 l -48.75,679.5 -401.39,-20.6"
           style="fill:url(#linearGradient380);fill-opacity:1;fill-rule:nonzero;stroke:none"
           id="path382" /></g></g><g
       id="g384"
       transform="matrix(0.10656856,0,0,0.09370752,-475.31056,-237.49201)"><g
         id="g386"
         clip-path="url(#clipPath390)"><path
           d="m 7039.11,13541.3 c -492.74,-2807.4 34.76,-6950.6 218.25,-7762.3 11.23,-49.7 50.89,-88.1 101.07,-96.9 85.22,-14.9 225.63,-27.8 364.56,11.1 47.85,13.4 81.8,56.2 84.22,105.8 31.91,654.5 24.08,4674.5 473.36,6258.9 22.76,80.3 72.59,150.1 141.08,197.8 l 848.31,590.9 73.84,967.7 -2304.69,-273"
           style="fill:url(#linearGradient3503);fill-opacity:1;fill-rule:nonzero;stroke:none"
           id="path398" /></g></g><g
       id="g400"
       transform="matrix(0.10656856,0,0,0.09370752,-475.31056,-237.49201)"
       style="fill:url(#linearGradient2483);fill-opacity:1"><g
         id="g402"
         clip-path="url(#clipPath406)"
         style="fill:url(#linearGradient3501);fill-opacity:1"><path
           d="m 10058.7,18840.8 c -1395.99,36.4 -2940.31,-338.6 -2940.31,-338.6 -439.36,-2424.5 -122.66,-5228.8 -122.66,-5228.8 1078.23,-293.8 2301.95,151.3 2301.95,151.3 189.34,1013.4 1054.82,3862 1054.82,3862 683,78.2 1246.9,269.6 1712.2,525.4 -349.1,412.6 -510.6,934.9 -579.9,1243.4 -495.2,-148.7 -995.5,-225.9 -1426.1,-214.7"
           style="fill:url(#linearGradient3499);fill-opacity:1;fill-rule:nonzero;stroke:none"
           id="path414" /></g></g><g
       id="g416"
       transform="matrix(0.10656856,0,0,0.09370752,-475.31056,-237.49201)"><g
         id="g418"
         clip-path="url(#clipPath422)"><path
           d="m 14202.6,20858 c -135.6,167 -309.9,90.3 -309.9,90.3 -213.7,-866 -1297.8,-1559.4 -2407.9,-1892.8 69.3,-308.5 230.8,-830.8 579.9,-1243.4 1846.7,1015.3 2137.9,3045.9 2137.9,3045.9"
           style="fill:url(#linearGradient428);fill-opacity:1;fill-rule:nonzero;stroke:none"
           id="path430" /></g></g><g
       id="g432"
       transform="matrix(0.10656856,0,0,0.09370752,-475.31056,-237.49201)"><g
         id="g434"
         clip-path="url(#clipPath438)"><path
           d="m 14168.9,20816.2 c 13.9,-45.7 -152.9,-113.6 -249,73.9 -2.5,89.5 -53.3,473.1 0.9,545.5 288.3,385.3 844.7,866.5 844.7,866.5 92.4,-92.9 14.7,-182.6 14.7,-182.6 l -270.3,-276.3 c 55,-101.7 122.5,-187.8 153.3,-310.5 23.4,-92.9 7.6,-191.8 -40,-275.7 -47.8,-84.2 -113,-193.7 -174.4,-279.2 -116.3,-161.9 -279.9,-161.6 -279.9,-161.6"
           style="fill:url(#linearGradient444);fill-opacity:1;fill-rule:nonzero;stroke:none"
           id="path446" /></g></g><g
       id="g448"
       transform="matrix(0.10656856,0,0,0.09370752,-475.31056,-237.49201)"><g
         id="g450"
         clip-path="url(#clipPath454)"><path
           d="m 14391,21663.4 -245.9,-204.5 -78.5,-205.2 215.2,-243.3 c 0,0 77,407.8 132.2,495.7 55.2,87.9 27.4,130.9 -23,157.3"
           style="fill:url(#linearGradient460);fill-opacity:1;fill-rule:nonzero;stroke:none"
           id="path462" /></g></g><g
       id="g464"
       transform="matrix(0.10656856,0,0,0.09370752,-475.31056,-237.49201)"
       style="fill:#ff8080"><g
         id="g466"
         clip-path="url(#clipPath470)"
         style="fill:#ff8080"><path
           d="m 7641.04,17145.1 -522.65,1357.1 c 0,0 -1312.63,-873.7 -1537.83,-1995.1 246.26,-20.5 694.05,-88.9 1130.85,-314.7 101.51,529.6 929.63,952.7 929.63,952.7"
           style="fill:#ff8080;fill-opacity:1;fill-rule:nonzero;stroke:none"
           id="path478" /></g></g><g
       id="g480"
       transform="matrix(0.10656856,0,0,0.09370752,-475.31056,-237.49201)"><g
         id="g482"
         clip-path="url(#clipPath486)"><path
           d="m 8768.6,15862.1 c 0,0 -1472.15,-813.6 -1959.48,-102.3 -101.17,147.7 -124.31,293.8 -97.71,432.6 -436.8,225.8 -884.59,294.2 -1130.85,314.7 -67.89,-338.1 -37.14,-698.7 158.41,-1064.7 850.33,-1591.4 3219.97,56.8 3219.97,56.8 l -190.34,362.9"
           style="fill:url(#linearGradient492);fill-opacity:1;fill-rule:nonzero;stroke:none"
           id="path494" /></g></g><g
       id="g496"
       transform="matrix(0.10656856,0,0,0.09370752,-475.31056,-237.49201)"><g
         id="g498"
         clip-path="url(#clipPath502)"><path
           d="m 8655.27,19987.8 -456.53,-1280.5 c -7.56,-21.2 0.96,-44.9 20.57,-56 120.47,-68.1 554.92,-265.8 1083.89,62.6 55.11,34.2 92.94,90.5 101.87,154.7 l 154.47,1110.6 -904.27,8.6"
           style="fill:url(#linearGradient508);fill-opacity:1;fill-rule:nonzero;stroke:none"
           id="path510" /></g></g><g
       id="g512"
       transform="matrix(0.10656856,0,0,0.09370752,-475.31056,-237.49201)"><g
         id="g514"
         clip-path="url(#clipPath518)"><path
           d="m 9633.27,21168.3 c 0,0 479.13,-922.9 413.03,-1293.3 -66.09,-370.3 -670.45,-337.9 -1195.54,-31.6 l -359.47,995.1 1141.98,329.8"
           style="fill:url(#linearGradient524);fill-opacity:1;fill-rule:nonzero;stroke:none"
           id="path526" /></g></g><g
       id="g528"
       transform="matrix(0.10656856,0,0,0.09370752,-475.31056,-237.49201)"><g
         id="g530"
         clip-path="url(#clipPath534)"><path
           d="m 8878.75,20330.1 c 21.54,9.3 29.71,35.5 17.05,55.3 -38.52,60 -110.62,182.5 -132.98,289.4 0,0 -87.17,57 224.46,128.5 311.62,71.4 776.38,182.5 876.36,446.2 97.48,257.2 -145.98,908.4 -549.22,395.2 -15.34,-19.5 -45.02,-19.7 -59.97,0.2 -64.48,85.6 -234.46,263.6 -473.82,158.9 -223.97,-97.9 -250.66,-261.1 -248.38,-343.5 0.67,-24.3 -21.18,-42.9 -44.95,-38.1 -112.55,22.6 -382.98,43.6 -511.93,-232.8 -106.21,-227.6 -39.83,-357.7 21.15,-421.6 19.75,-20.7 10.69,-54.4 -16.75,-62.5 -74.34,-22 -170.62,-83.9 -162.7,-257.6 10.96,-240.2 279.53,-221.6 356.03,-211.4 12.54,1.7 25.12,-2.7 33.5,-12.2 64.83,-73.1 357.06,-383.8 676.18,-423.9 27.64,-3.5 49.34,23.6 40.53,50 l -134.42,403.3 c -6.25,18.7 2.88,39.1 21,46.9 l 68.86,29.7"
           style="fill:url(#linearGradient540);fill-opacity:1;fill-rule:nonzero;stroke:none"
           id="path542" /></g></g><g
       id="g544"
       transform="matrix(0.10656856,0,0,0.09370752,-475.31056,-237.49201)"><g
         id="g546"
         clip-path="url(#clipPath550)"><path
           d="m 8933.78,20272.5 c 0,0 -345.08,241.7 -372.37,41.2 -27.29,-200.4 310.01,-293.7 478.23,-220.4 l -105.86,179.2"
           style="fill:url(#linearGradient556);fill-opacity:1;fill-rule:nonzero;stroke:none"
           id="path558" /></g></g><g
       id="g560"
       transform="matrix(0.10656856,0,0,0.09370752,-475.31056,-237.49201)"><g
         id="g562"
         clip-path="url(#clipPath566)"><path
           d="m 8467.74,14576.3 801.94,2800.6 c 9.1,31.8 36.22,55 69.07,58.8 145.3,17 566.32,64.6 1052.45,105.7 585.5,49.5 1265.5,89.6 1671.8,55.5 57.8,-4.9 92.7,-66 67,-117.9 -231.1,-467.5 -1181.5,-2369.1 -1657.5,-2992 -15.7,-20.7 -40.1,-32.7 -66.1,-32.5 l -1860.65,17.3 c -54.14,0.5 -92.91,52.5 -78.01,104.5"
           style="fill:url(#linearGradient572);fill-opacity:1;fill-rule:nonzero;stroke:none"
           id="path574" /></g></g><g
       id="g576"
       transform="matrix(0.10656856,0,0,0.09370752,-475.31056,-237.49201)"><g
         id="g578"
         clip-path="url(#clipPath582)"><path
           d="m 8661.49,15252.9 c 0,0 -111.71,459.4 -66.65,622.4 45.06,163 132.37,372.5 423.38,325.9 291.03,-46.5 634.31,-169.1 634.31,-169.1 0,0 -17.34,-212.3 -238.52,-143.8 l 137.16,-106.2 c 0,0 -19.6,-169.9 -206.43,-79.1 l 127.57,-140.8 c 0,0 -80.24,-139.6 -217.69,-50 -137.45,89.5 -203.34,-314.6 -593.13,-259.3"
           style="fill:url(#linearGradient588);fill-opacity:1;fill-rule:nonzero;stroke:none"
           id="path590" /></g></g><path
       d="m 626.36305,1327.9296 c 0,-12.1914 11.23238,-22.0681 25.0862,-22.0681 13.85403,0 25.0862,9.8767 25.0862,22.0681 0,12.1819 -11.23217,22.0587 -25.0862,22.0587 -13.85382,0 -25.0862,-9.8768 -25.0862,-22.0587"
       style="fill:#91b3fa;fill-opacity:1;fill-rule:nonzero;stroke:none;stroke-width:0.0999317"
       id="path592" /><path
       d="m 522.21576,1313.3862 17.40053,51.8952 c 2.13465,6.3814 7.96272,11.1606 15.20733,12.4911 54.53102,10.0081 203.80166,12.1351 205.30432,12.1539 l -0.0962,5.8569 c -6.1596,-0.074 -151.41266,-2.1461 -206.57043,-12.2664 -9.65279,-1.7712 -17.40887,-8.1244 -20.24474,-16.5676 l -17.39936,-51.9044 6.39819,-1.6587"
       style="fill:#bdd0fb;fill-opacity:1;fill-rule:nonzero;stroke:none;stroke-width:0.0999317"
       id="path594" /><g
       id="g596"
       transform="matrix(0.10656856,0,0,0.09370752,-475.31056,-237.49201)"
       style="fill:url(#linearGradient2683);fill-opacity:1"><g
         id="g598"
         clip-path="url(#clipPath602)"
         style="fill:url(#linearGradient3497);fill-opacity:1"><path
           d="m 26514.1,11496 c 0,-767.4 -622.1,-1389.5 -1389.5,-1389.5 h -4622.8 c -767.4,0 -1389.5,622.1 -1389.5,1389.5 v 26.2 c 0,767.4 622.1,1389.5 1389.5,1389.5 h 4622.8 c 767.4,0 1389.5,-622.1 1389.5,-1389.5 v -26.2"
           style="fill:url(#linearGradient3495);fill-opacity:1;fill-rule:nonzero;stroke:none"
           id="path610" /></g></g><path
       d="m 1765.9963,785.69094 c 4.0497,-0.44976 9.3781,-0.66523 16.4757,-0.66523 20.0134,0 37.7572,6.68133 37.7572,25.16985 0,17.38281 -17.2321,24.51389 -38.7697,24.51389 h -15.4632 z m 0,69.0719 h 15.9641 c 21.5376,0 33.7076,8.91158 33.7076,21.61827 0,14.03743 -12.17,20.49388 -31.9386,20.49388 -9.1222,0 -14.4401,-0.44033 -17.7331,-1.11512 z m -30.9153,59.27009 c 9.8788,1.78033 27.8675,3.12049 45.366,3.12049 23.051,0 37.2458,-2.45528 48.9044,-9.57709 10.6462,-5.57563 17.733,-15.37729 17.733,-28.07472 0,-13.82182 -9.8787,-26.51927 -28.3792,-32.53522 v -0.44991 c 17.9888,-4.01058 34.4643,-16.48315 34.4643,-37.21116 0,-13.36266 -6.586,-23.83926 -16.4755,-30.97034 -12.1595,-9.36133 -32.1838,-14.03729 -63.3443,-14.03729 -17.2322,0 -30.4041,1.11498 -38.2687,2.00522 v 147.73002"
       style="fill:#ffffff;fill-opacity:1;fill-rule:nonzero;stroke:none;stroke-width:0.0999317"
       id="path612" /><path
       d="m 1911.9313,916.0383 v -87.56969 c 0,-29.41503 13.9393,-43.00255 34.9758,-43.00255 22.55,0 35.9882,13.58752 35.9882,43.00255 v 87.56969 h 31.1608 v -85.78934 c 0,-46.34778 -27.1111,-66.84152 -68.1614,-66.84152 -39.5261,0 -65.1239,19.37862 -65.1239,66.62589 v 86.00497 h 31.1605"
       style="fill:#ffffff;fill-opacity:1;fill-rule:nonzero;stroke:none;stroke-width:0.0999317"
       id="path614" /><path
       d="m 2088.5367,765.85316 v 62.61545 l -53.9768,87.56969 h 35.4765 l 20.5144,-38.55149 c 5.8402,-11.14165 10.1454,-19.60364 14.7066,-29.85505 h 0.5115 c 4.3054,9.57694 9.1116,18.94752 14.9516,29.85505 l 20.5251,38.55149 h 35.221 l -56.769,-86.90447 v -63.28067 h -31.1609"
       style="fill:#ffffff;fill-opacity:1;fill-rule:nonzero;stroke:none;stroke-width:0.0999317"
       id="path616" /></g></svg>
